<?xml version="1.0" encoding="utf-8"?>
<!-- Generator: Adobe Illustrator 20.1.0, SVG Export Plug-In . SVG Version: 6.00 Build 0)  -->
<svg version="1.1" id="Flag" xmlns="http://www.w3.org/2000/svg" xmlns:xlink="http://www.w3.org/1999/xlink" x="0px" y="0px"
	 viewBox="0 0 1990 1050" style="enable-background:new 0 0 1990 1050" xml:space="preserve" class="lang-eur">
<g>
	<rect fill="#314199" width="1990" height="1050"/>
	<g>
		<polygon fill="#F8EC26" points="994.6,823.7 1008.4,864.6 1050.5,864.6 1020.6,887.2 1028.8,931 994.6,906.2 960.3,930.4
			968.6,887.2 939,864.4 981.1,864.4"/>
		<polygon fill="#F8EC26" points="994.6,113.6 1008.4,154.4 1050.5,154.4 1020.6,177 1028.8,220.9 994.6,196 960.3,220.2 968.6,177
			939,154.3 981.1,154.3"/>
		<polygon fill="#F8EC26" points="1165.7,159.2 1179.5,200.1 1221.6,200.1 1191.7,222.7 1199.9,266.5 1165.7,241.6 1131.3,265.9
			1139.6,222.7 1110.1,199.9 1152.1,199.9"/>
		<polygon fill="#F8EC26" points="815.3,159.2 829.1,200.1 871.2,200.1 841.3,222.7 849.5,266.5 815.3,241.6 781,265.9 789.3,222.7
			759.7,199.9 801.8,199.9"/>
		<polygon fill="#F8EC26" points="1165.7,775.7 1179.5,816.6 1221.6,816.6 1191.7,839.2 1199.9,883.1 1165.7,858.2 1131.3,882.4
			1139.6,839.2 1110.1,816.4 1152.1,816.4"/>
		<polygon fill="#F8EC26" points="815.3,775.7 829.1,816.6 871.2,816.6 841.3,839.2 849.5,883.1 815.3,858.2 781,882.4 789.3,839.2
			759.7,816.4 801.8,816.4"/>
		<polygon fill="#F8EC26" points="684.3,293.2 698.1,334.1 740.2,334.1 710.3,356.7 718.5,400.6 684.3,375.7 649.9,399.9 658.3,356.7
			628.7,333.9 670.7,333.9"/>
		<polygon fill="#F8EC26" points="1301,293.2 1314.8,334.1 1356.9,334.1 1327,356.7 1335.2,400.6 1301,375.7 1266.6,399.9 1275,356.7
			1245.4,333.9 1287.4,333.9"/>
		<polygon fill="#F8EC26" points="684.3,647.7 698.1,688.6 740.2,688.5 710.3,711.1 718.5,755 684.3,730.1 649.9,754.4 658.3,711.1
			628.7,688.4 670.7,688.4"/>
		<polygon fill="#F8EC26" points="1301,647.7 1314.8,688.6 1356.9,688.5 1327,711.1 1335.2,755 1301,730.1 1266.6,754.4 1275,711.1
			1245.4,688.4 1287.4,688.4"/>
		<polygon fill="#F8EC26" points="643.6,469.1 657.4,510 699.5,510 669.6,532.6 677.8,576.5 643.6,551.6 609.2,575.8 617.6,532.6
			588,509.8 630,509.8"/>
		<polygon fill="#F8EC26" points="1346.1,469.1 1359.9,510 1402,510 1372.1,532.6 1380.3,576.5 1346.1,551.6 1311.8,575.8
			1320.1,532.6 1290.5,509.8 1332.6,509.8"/>
	</g>
</g>
</svg>
