<?xml version="1.0" encoding="UTF-8" standalone="no"?>
<svg
   xmlns:dc="http://purl.org/dc/elements/1.1/"
   xmlns:cc="http://creativecommons.org/ns#"
   xmlns:rdf="http://www.w3.org/1999/02/22-rdf-syntax-ns#"
   xmlns:svg="http://www.w3.org/2000/svg"
   xmlns="http://www.w3.org/2000/svg"
   xmlns:sodipodi="http://sodipodi.sourceforge.net/DTD/sodipodi-0.dtd"
   xmlns:inkscape="http://www.inkscape.org/namespaces/inkscape"
   height="512pt"
   viewBox="0 0 512 512"
   width="512pt"
   version="1.1"
   id="svg6"
   sodipodi:docname="007-skype.svg"
   class="ico-skype"
   inkscape:version="0.92.3 (2405546, 2018-03-11)">
  <metadata
     id="metadata12">
    <rdf:RDF>
      <cc:Work
         rdf:about="">
        <dc:format>image/svg+xml</dc:format>
        <dc:type
           rdf:resource="http://purl.org/dc/dcmitype/StillImage" />
      </cc:Work>
    </rdf:RDF>
  </metadata>
  <defs
     id="defs10" />
  <sodipodi:namedview
     pagecolor="#ffffff"
     bordercolor="#666666"
     borderopacity="1"
     objecttolerance="10"
     gridtolerance="10"
     guidetolerance="10"
     inkscape:pageopacity="0"
     inkscape:pageshadow="2"
     inkscape:window-width="1920"
     inkscape:window-height="1024"
     id="namedview8"
     showgrid="false"
     inkscape:zoom="0.34570313"
     inkscape:cx="-578.53107"
     inkscape:cy="341.33333"
     inkscape:window-x="0"
     inkscape:window-y="0"
     inkscape:window-maximized="1"
     inkscape:current-layer="svg6" />
  <path
     d="m 284.4375,237.76172 -35.20313,-7.8125 c -13.39062,-3.05078 -28.80468,-7.08203 -28.80468,-19.70703 0,-12.65235 10.8125,-21.49219 30.33203,-21.49219 39.33984,0 35.74609,27.03516 55.27734,27.03516 10.27735,0 19.27344,-6.04297 19.27344,-16.4336 0,-24.24609 -38.80469,-42.4414 -71.72266,-42.4414 -35.73437,0 -73.78906,15.17578 -73.78906,55.59375 0,19.46484 6.95313,40.17187 45.25781,49.77734 l 47.5625,11.875 c 14.39453,3.54687 17.9961,11.64453 17.9961,18.94922 0,12.14844 -12.06641,24.01562 -33.92578,24.01562 -42.69922,0 -36.77344,-32.85937 -59.65625,-32.85937 -10.28125,0 -17.74219,7.08203 -17.74219,17.1875 0,19.70312 23.92187,45.99609 77.39844,45.99609 50.8789,0 76.08984,-24.52344 76.08984,-57.36719 0,-21.20703 -9.77734,-43.72265 -48.34375,-52.3164 z m 0,0"
     id="path2"
     inkscape:connector-curvature="0" />
  <path
     d="M 256,0 C 114.63672,0 0,114.63672 0,256 0,397.36328 114.63672,512 256,512 397.36328,512 512,397.36328 512,256 512,114.63672 397.36328,0 256,0 Z M 389.28516,388.90625 C 372.45312,405.74609 350.08594,415 326.28906,415 c -15.41406,0 -30.50781,-4.00781 -43.83984,-11.55078 -8.65234,1.53515 -17.51563,2.34375 -26.35938,2.34375 -20.32031,0 -40.03906,-3.98438 -58.58984,-11.84766 -17.9375,-7.5625 -34.02734,-18.42578 -47.85937,-32.25 -13.81641,-13.82031 -24.66797,-29.91015 -32.24219,-47.83984 -7.85938,-18.5625 -11.83594,-38.26953 -11.83594,-58.59375 0,-8.70313 0.78125,-17.41797 2.26563,-25.94531 -7.31641,-13.16016 -11.210942,-28.05079 -11.210942,-43.20313 0,-23.80078 9.273442,-46.17969 26.097652,-63.00781 C 139.54688,106.26953 161.92578,97 185.72656,97 c 14.57813,0 28.98438,3.63672 41.78907,10.44531 0.0234,-0.004 0.0508,-0.004 0.0703,-0.0117 9.33594,-1.78906 18.92578,-2.6914 28.5039,-2.6914 20.31641,0 40.03125,3.98047 58.58204,11.82812 17.91796,7.58203 34.02734,18.4336 47.83984,32.25391 13.83203,13.82422 24.67969,29.92187 32.26172,47.84765 7.85937,18.5586 11.83594,38.26954 11.83594,58.58985 0,9.16015 -0.86329,18.32812 -2.50782,27.28515 7.36719,13.21094 11.28516,28.15235 11.28516,43.35547 -0.004,23.80078 -9.26563,46.1836 -26.10156,63.00391 z m 0,0"
     id="path4"
     inkscape:connector-curvature="0" />
</svg>
