<?xml version="1.0" encoding="UTF-8" standalone="no"?>
<svg
   xmlns:dc="http://purl.org/dc/elements/1.1/"
   xmlns:cc="http://creativecommons.org/ns#"
   xmlns:rdf="http://www.w3.org/1999/02/22-rdf-syntax-ns#"
   xmlns:svg="http://www.w3.org/2000/svg"
   xmlns="http://www.w3.org/2000/svg"
   xmlns:sodipodi="http://sodipodi.sourceforge.net/DTD/sodipodi-0.dtd"
   xmlns:inkscape="http://www.inkscape.org/namespaces/inkscape"
   viewBox="0 0 30 30"
   version="1.1"
   id="svg3336"
   inkscape:version="0.91 r13725"
   class="ico-menu">
  <metadata
     id="metadata3352">
    <rdf:RDF>
      <cc:Work
         rdf:about="">
        <dc:format>image/svg+xml</dc:format>
        <dc:type
           rdf:resource="http://purl.org/dc/dcmitype/StillImage" />
        <dc:title>B74DB741-3F22-4B9D-9144-9F3D4FD6FD8B</dc:title>
      </cc:Work>
    </rdf:RDF>
  </metadata>
  <sodipodi:namedview
     pagecolor="#ffffff"
     bordercolor="#666666"
     borderopacity="1"
     objecttolerance="10"
     gridtolerance="10"
     guidetolerance="10"
     inkscape:pageopacity="0"
     inkscape:pageshadow="2"
     inkscape:window-width="1920"
     inkscape:window-height="1028"
     id="namedview3350"
     showgrid="false"
     inkscape:zoom="14.663162"
     inkscape:cx="-6.2760846"
     inkscape:cy="17.144868"
     inkscape:window-x="1920"
     inkscape:window-y="0"
     inkscape:window-maximized="1"
     inkscape:current-layer="svg3336"
     showguides="true"
     inkscape:guide-bbox="true" />
  <defs
     id="defs3342" />
  <path
     style="fill:#626366"
     d="M 1.4346098,8.7417016 C 0.64358678,8.7417016 0,8.0904866 0,7.2900876 0,6.4896896 0.64358678,5.8384746 1.4346098,5.8384746 l 27.1307802,0 c 0.791023,0 1.43461,0.651215 1.43461,1.451613 0,0.800399 -0.643587,1.451614 -1.43461,1.451614 l -27.1307802,0 z"
     inkscape:connector-curvature="0"
     class="ico-menu-top" />
  <path
     style="fill:#626366"
     inkscape:connector-curvature="0"
     d="M 1.4346098,16.483636 C 0.64358678,16.483636 0,15.832422 0,15.032024 0,14.231626 0.64358678,13.580411 1.4346098,13.580411 l 27.1307802,0 c 0.791023,0 1.43461,0.651215 1.43461,1.451613 0,0.800398 -0.643587,1.451612 -1.43461,1.451612 l -27.1307802,0 z"
     class="ico-menu-middle" />
  <path
     style="fill:#626366"
     inkscape:connector-curvature="0"
     d="M 1.4346098,24.225572 C 0.64358678,24.225572 0,23.574357 0,22.773959 0,21.973561 0.64358678,21.322346 1.4346098,21.322346 l 27.1307802,0 c 0.791023,0 1.43461,0.651215 1.43461,1.451613 0,0.800398 -0.643587,1.451613 -1.43461,1.451613 l -27.1307802,0 z"
     class="ico-menu-bottom" />
</svg>
