<?xml version="1.0" encoding="UTF-8" standalone="no"?>
<!-- Generator: Adobe Illustrator 23.0.0, SVG Export Plug-In . SVG Version: 6.00 Build 0)  -->

<svg
   xmlns:dc="http://purl.org/dc/elements/1.1/"
   xmlns:cc="http://creativecommons.org/ns#"
   xmlns:rdf="http://www.w3.org/1999/02/22-rdf-syntax-ns#"
   xmlns:svg="http://www.w3.org/2000/svg"
   xmlns="http://www.w3.org/2000/svg"
   xmlns:sodipodi="http://sodipodi.sourceforge.net/DTD/sodipodi-0.dtd"
   xmlns:inkscape="http://www.inkscape.org/namespaces/inkscape"
   version="1.1"
   id="Layer_1"
   class="ico-instagram"
   x="0px"
   y="0px"
   viewBox="0 0 14.45 14.104"
   enable-background="new 0 0 14.45 14.104"
   xml:space="preserve"
   inkscape:version="0.91 r13725"
   sodipodi:docname="ico-instagram.svg"><defs
     id="defs22" /><sodipodi:namedview
     pagecolor="#ffffff"
     bordercolor="#666666"
     borderopacity="1"
     objecttolerance="10"
     gridtolerance="10"
     guidetolerance="10"
     inkscape:pageopacity="0"
     inkscape:pageshadow="2"
     inkscape:window-width="1920"
     inkscape:window-height="1028"
     id="namedview20"
     showgrid="false"
     inkscape:zoom="16.732842"
     inkscape:cx="-21.341577"
     inkscape:cy="7.0520002"
     inkscape:window-x="0"
     inkscape:window-y="0"
     inkscape:window-maximized="1"
     inkscape:current-layer="Layer_1" /><path
     d="M 7.177,9.377 C 5.889,9.376 4.82,8.316 4.82,7.04 4.82,5.753 5.893,4.705 7.211,4.704 8.531,4.703 9.608,5.751 9.609,7.034 9.61,8.344 8.536,9.378 7.177,9.377 M 7.22,3.44 C 5.172,3.44 3.524,5.045 3.523,7.04 3.522,9.036 5.17,10.644 7.215,10.644 9.26,10.643 10.906,9.035 10.905,7.037 10.904,5.048 9.257,3.44 7.22,3.44"
     inkscape:connector-curvature="0"
     style="clip-rule:evenodd;fill:#bb2f15;fill-rule:evenodd"
     id="path11" /><path
     style="clip-rule:evenodd;fill:#bb2f15;fill-rule:evenodd"
     inkscape:connector-curvature="0"
     d="M 13.07,9.0500001 C 13.063,9.6260001 13.028,10.21 12.92,10.774 12.713,11.849 11.951,12.542 10.837,12.713 10.388,12.782 9.929,12.81 9.474,12.815 8.046,12.832 6.617,12.843 5.189,12.827 4.598,12.82 4,12.788 3.421,12.681 2.313,12.478 1.604,11.74 1.427,10.655 1.356,10.218 1.327,9.7690001 1.322,9.3250001 c -0.018,-1.398 -0.03,-2.797 -0.014,-4.196 0.007,-0.576 0.042,-1.16 0.151,-1.725 0.207,-1.075 0.967,-1.783 2.083,-1.934 0.699,-0.094 1.411,-0.102 2.119,-0.128 0.514,-0.018 1.029,-0.003 1.544,-0.003 l 0,-0.015 c 0.945,0.017 1.89,0.029 2.836,0.055 0.553,0.015 1.101,0.087 1.601,0.336 0.759,0.378 1.179,1.005 1.309,1.809 0.072,0.438 0.1,0.886 0.106,1.33 0.017,1.398 0.029,2.798 0.013,4.196 m 1.28,-4.538 c -0.018,-0.672 -0.077,-1.339 -0.33,-1.973 -0.492,-1.23 -1.418,-1.97200001 -2.723,-2.27900001 -0.553,-0.13 -1.12,-0.15 -1.687,-0.163 -0.05,-0.002 -0.101,-0.014 -0.15,-0.022 l -4.541,0 c -0.123,0.01 -0.247,0.025 -0.371,0.028 -0.689,0.017 -1.373,0.075 -2.022,0.322 -1.261,0.48 -2.021,1.38400001 -2.336,2.65600001 -0.133,0.541 -0.154,1.094 -0.167,1.647 -0.002,0.049 -0.015,0.097 -0.023,0.147 l 0,4.429 c 0.01,0.121 0.025,0.241 0.029,0.363 C 0.045,10.34 0.105,11.007 0.358,11.64 c 0.492,1.23 1.418,1.972 2.723,2.279 0.554,0.131 1.12,0.151 1.687,0.164 0.05,10e-4 0.1,0.014 0.15,0.021 l 4.541,0 c 0.123,-0.01 0.246,-0.025 0.37,-0.028 0.69,-0.017 1.373,-0.075 2.022,-0.322 1.261,-0.479 2.021,-1.384 2.336,-2.657 0.134,-0.54 0.154,-1.093 0.167,-1.6459999 0.002,-0.049 0.015,-0.098 0.023,-0.147 l 0,-4.429 c -0.009,-0.121 -0.025,-0.242 -0.027,-0.363"
     id="path13" /><path
     d="M 11.06,2.455 C 10.577,2.453 10.185,2.83 10.186,3.296 10.187,3.76 10.565,4.133 11.042,4.14 11.519,4.148 11.913,3.767 11.914,3.297 11.915,2.832 11.535,2.458 11.06,2.455"
     inkscape:connector-curvature="0"
     style="clip-rule:evenodd;fill:#bb2f15;fill-rule:evenodd"
     id="path15" /><metadata
     id="metadata3380"><rdf:RDF><cc:Work
         rdf:about=""><dc:title></dc:title><dc:format>image/svg+xml</dc:format><dc:type
           rdf:resource="http://purl.org/dc/dcmitype/StillImage" /></cc:Work></rdf:RDF></metadata></svg>
