<?xml version="1.0" encoding="iso-8859-1"?>
<!-- Generator: Adobe Illustrator 19.0.0, SVG Export Plug-In . SVG Version: 6.00 Build 0)  -->
<svg version="1.1" id="Capa_1" xmlns="http://www.w3.org/2000/svg" xmlns:xlink="http://www.w3.org/1999/xlink" x="0px" y="0px"
	 viewBox="0 0 512 512" style="enable-background:new 0 0 512 512;" xml:space="preserve" class="ico-active">
<path style="fill:#87CED9;" d="M0,255.999L0,255.999c141.303-141.383,370.458-141.453,511.85-0.15
	c0.053,0.053,0.097,0.097,0.15,0.15l0,0c-141.303,141.383-370.458,141.453-511.85,0.15C0.097,256.105,0.053,256.052,0,255.999z"/>
<circle style="fill:#4398D1;" cx="256" cy="255.999" r="105.931"/>
<circle style="fill:#215280;" cx="256" cy="255.999" r="44.138"/>
<g>
	<path style="fill:#E0E0E0;" d="M256,447.999c-88.373,0.238-173.206-34.701-235.785-97.103l12.535-12.535
		c123.366,123.127,323.134,123.127,446.499,0l12.535,12.535C429.206,413.298,344.373,448.238,256,447.999z"/>
	<path style="fill:#E0E0E0;" d="M479.25,173.991c-123.366-123.127-323.134-123.127-446.499,0l-12.535-12.535
		c130.33-129.942,341.239-129.942,471.57,0L479.25,173.991z"/>
</g>
<g>
</g>
<g>
</g>
<g>
</g>
<g>
</g>
<g>
</g>
<g>
</g>
<g>
</g>
<g>
</g>
<g>
</g>
<g>
</g>
<g>
</g>
<g>
</g>
<g>
</g>
<g>
</g>
<g>
</g>
</svg>
