<?xml version="1.0" encoding="UTF-8" standalone="no"?>
<svg
   xmlns:dc="http://purl.org/dc/elements/1.1/"
   xmlns:cc="http://creativecommons.org/ns#"
   xmlns:rdf="http://www.w3.org/1999/02/22-rdf-syntax-ns#"
   xmlns:svg="http://www.w3.org/2000/svg"
   xmlns="http://www.w3.org/2000/svg"
   xmlns:sodipodi="http://sodipodi.sourceforge.net/DTD/sodipodi-0.dtd"
   xmlns:inkscape="http://www.inkscape.org/namespaces/inkscape"
   id="Layer_1"
   height="289.98801"
   viewBox="0 0 104 72.497002"
   width="416"
   data-name="Layer 1"
   class="lang-pt"
   version="1.1"
   sodipodi:docname="lang-pt.svg"
   inkscape:version="0.92.3 (2405546, 2018-03-11)">
  <metadata
     id="metadata15">
    <rdf:RDF>
      <cc:Work
         rdf:about="">
        <dc:format>image/svg+xml</dc:format>
        <dc:type
           rdf:resource="http://purl.org/dc/dcmitype/StillImage" />
        <dc:title></dc:title>
      </cc:Work>
    </rdf:RDF>
  </metadata>
  <defs
     id="defs13" />
  <sodipodi:namedview
     pagecolor="#ffffff"
     bordercolor="#666666"
     borderopacity="1"
     objecttolerance="10"
     gridtolerance="10"
     guidetolerance="10"
     inkscape:pageopacity="0"
     inkscape:pageshadow="2"
     inkscape:window-width="1920"
     inkscape:window-height="1024"
     id="namedview11"
     showgrid="false"
     fit-margin-top="0"
     fit-margin-left="0"
     fit-margin-right="0"
     fit-margin-bottom="0"
     inkscape:zoom="0.4609375"
     inkscape:cx="208"
     inkscape:cy="144.992"
     inkscape:window-x="0"
     inkscape:window-y="0"
     inkscape:window-maximized="1"
     inkscape:current-layer="Layer_1" />
  <path
     d="M 0,0 H 104 V 72.497 H 0 Z"
     id="path2"
     inkscape:connector-curvature="0"
     style="fill:#6fa44a" />
  <path
     d="M 52,8.916 5.218,36.249 52,63.582 98.782,36.249 Z"
     id="path4"
     inkscape:connector-curvature="0"
     style="fill:#fed953" />
  <circle
     cx="52"
     cy="36.249001"
     r="15.349"
     id="circle6"
     style="fill:#0b55b1" />
  <path
     d="M 52.507,28.7 A 30.772,30.772 0 0 0 39.1,27.955 a 15.241,15.241 0 0 0 -2.163,5.386 30.871,30.871 0 0 1 13.337,0.774 c 6.714,1.821 12.149,5.424 15.164,9.552 a 15.243,15.243 0 0 0 1.84,-5.942 C 64.191,33.819 58.934,30.443 52.507,28.7 Z"
     id="path8"
     inkscape:connector-curvature="0"
     style="fill:#f0f0f0" />
</svg>
