<?xml version="1.0" encoding="UTF-8" standalone="no"?>
<!-- Generator: Adobe Illustrator 19.0.0, SVG Export Plug-In . SVG Version: 6.00 Build 0)  -->

<svg
   xmlns:dc="http://purl.org/dc/elements/1.1/"
   xmlns:cc="http://creativecommons.org/ns#"
   xmlns:rdf="http://www.w3.org/1999/02/22-rdf-syntax-ns#"
   xmlns:svg="http://www.w3.org/2000/svg"
   xmlns="http://www.w3.org/2000/svg"
   xmlns:sodipodi="http://sodipodi.sourceforge.net/DTD/sodipodi-0.dtd"
   xmlns:inkscape="http://www.inkscape.org/namespaces/inkscape"
   version="1.1"
   id="Layer_1"
   x="0px"
   y="0px"
   viewBox="0 0 512.001 335.44902"
   xml:space="preserve"
   sodipodi:docname="flag-spain.svg"
   width="512.00098"
   height="335.44901"
   inkscape:version="0.92.3 (2405546, 2018-03-11)"
   class="lang-es"><metadata
   id="metadata131"><rdf:RDF><cc:Work
       rdf:about=""><dc:format>image/svg+xml</dc:format><dc:type
         rdf:resource="http://purl.org/dc/dcmitype/StillImage" /><dc:title /></cc:Work></rdf:RDF></metadata><defs
   id="defs129" /><sodipodi:namedview
   pagecolor="#ffffff"
   bordercolor="#666666"
   borderopacity="1"
   objecttolerance="10"
   gridtolerance="10"
   guidetolerance="10"
   inkscape:pageopacity="0"
   inkscape:pageshadow="2"
   inkscape:window-width="1920"
   inkscape:window-height="1024"
   id="namedview127"
   showgrid="false"
   fit-margin-top="0"
   fit-margin-left="0"
   fit-margin-right="0"
   fit-margin-bottom="0"
   inkscape:zoom="0.46093662"
   inkscape:cx="-1058.7139"
   inkscape:cy="167.72451"
   inkscape:window-x="0"
   inkscape:window-y="0"
   inkscape:window-maximized="1"
   inkscape:current-layer="Layer_1" />
<path
   style="fill:#c8414b"
   d="m 8.828,335.449 h 494.345 c 4.875,0 8.828,-3.953 8.828,-8.828 V 8.828 C 512.001,3.953 508.048,0 503.173,0 H 8.828 C 3.953,0.001 0,3.953 0,8.828 v 317.793 c 0,4.876 3.953,8.828 8.828,8.828 z"
   id="path2"
   inkscape:connector-curvature="0" />
<rect
   y="70.625"
   style="fill:#ffd250"
   width="512"
   height="194.21001"
   id="rect4"
   x="0" />
<path
   style="fill:#c8414b"
   d="m 216.276,167.725 7.485,-33.681 C 224.451,130.942 222.09,128 218.912,128 h -5.272 c -3.177,0 -5.537,2.942 -4.849,6.044 z"
   id="path6"
   inkscape:connector-curvature="0" />
<rect
   x="207.45"
   y="150.065"
   style="fill:#f5f5f5"
   width="17.655001"
   height="75.029999"
   id="rect8" />
<rect
   x="203.03"
   y="141.245"
   style="fill:#fab446"
   width="26.483"
   height="8.8280001"
   id="rect10" />
<g
   id="g18"
   transform="translate(0,-88.276)">
	<rect
   x="185.38"
   y="256.00101"
   style="fill:#c8414b"
   width="44.139999"
   height="8.8280001"
   id="rect12" />
	<polygon
   style="fill:#c8414b"
   points="229.517,282.484 229.517,291.311 203.034,282.484 203.034,273.656 "
   id="polygon14" />
	<path
   style="fill:#c8414b"
   d="m 83.862,256.001 7.485,-33.681 c 0.69,-3.102 -1.671,-6.044 -4.849,-6.044 h -5.272 c -3.177,0 -5.537,2.942 -4.849,6.044 z"
   id="path16"
   inkscape:connector-curvature="0" />
</g>
<path
   style="fill:#f5f5f5"
   d="m 114.759,141.242 c -4.875,0 -8.828,3.953 -8.828,8.828 v 57.379 c 0,10.725 10.01,30.897 44.138,30.897 34.128,0 44.138,-20.171 44.138,-30.897 V 150.07 c 0,-4.875 -3.953,-8.828 -8.828,-8.828 z"
   id="path20"
   inkscape:connector-curvature="0" />
<g
   id="g26"
   transform="translate(0,-88.276)">
	<path
   style="fill:#c8414b"
   d="m 150.069,273.656 h -44.138 v -35.31 c 0,-4.875 3.953,-8.828 8.828,-8.828 h 35.31 z"
   id="path22"
   inkscape:connector-curvature="0" />
	<path
   style="fill:#c8414b"
   d="m 150.069,273.656 h 44.138 v 22.069 c 0,12.189 -9.88,22.069 -22.069,22.069 v 0 c -12.189,0 -22.069,-9.88 -22.069,-22.069 z"
   id="path24"
   inkscape:connector-curvature="0" />
</g>
<path
   style="fill:#fab446"
   d="m 105.931,185.38 h 44.138 v 22.069 c 0,12.189 -9.88,22.069 -22.069,22.069 v 0 c -12.189,0 -22.069,-9.88 -22.069,-22.069 z"
   id="path28"
   inkscape:connector-curvature="0" />
<g
   id="g34"
   transform="translate(0,-88.276)">
	<path
   style="fill:#c8414b"
   d="m 141.241,313.281 v -39.625 h -8.828 v 43.693 c 3.284,-0.666 6.251,-2.12 8.828,-4.068 z"
   id="path30"
   inkscape:connector-curvature="0" />
	<path
   style="fill:#c8414b"
   d="m 123.586,317.349 v -43.693 h -8.828 v 39.625 c 2.578,1.948 5.545,3.402 8.828,4.068 z"
   id="path32"
   inkscape:connector-curvature="0" />
</g>
<rect
   x="114.76"
   y="167.72501"
   style="fill:#ffb441"
   width="26.483"
   height="8.8280001"
   id="rect36" />
<g
   id="g42"
   transform="translate(0,-88.276)">
	<rect
   x="114.76"
   y="238.341"
   style="fill:#fab446"
   width="26.483"
   height="8.8280001"
   id="rect38" />
	<rect
   x="119.17"
   y="243.591"
   style="fill:#fab446"
   width="17.655001"
   height="15.992"
   id="rect40" />
</g>
<rect
   x="75.029999"
   y="150.065"
   style="fill:#f5f5f5"
   width="17.655001"
   height="75.029999"
   id="rect44" />
<g
   id="g50"
   transform="translate(0,-88.276)">
	<rect
   x="70.620003"
   y="308.97101"
   style="fill:#fab446"
   width="26.483"
   height="8.8280001"
   id="rect46" />
	<rect
   x="70.620003"
   y="229.521"
   style="fill:#fab446"
   width="26.483"
   height="8.8280001"
   id="rect48" />
</g>
<rect
   x="66.209999"
   y="229.51498"
   style="fill:#5064aa"
   width="35.310001"
   height="8.8280001"
   id="rect52" />
<rect
   x="207.45"
   y="220.69501"
   style="fill:#fab446"
   width="26.483"
   height="8.8280001"
   id="rect54" />
<rect
   x="198.62"
   y="229.51498"
   style="fill:#5064aa"
   width="35.310001"
   height="8.8280001"
   id="rect56" />
<rect
   x="123.59"
   y="132.41499"
   style="fill:#fab446"
   width="52.966"
   height="8.8280001"
   id="rect58" />
<rect
   x="145.66"
   y="105.935"
   style="fill:#ffb441"
   width="8.8280001"
   height="26.483"
   id="rect60" />
<g
   id="g70"
   transform="translate(0,-88.276)">
	<path
   style="fill:#f5f5f5"
   d="m 141.241,207.449 c -7.302,0 -13.241,-5.94 -13.241,-13.241 0,-7.302 5.94,-13.241 13.241,-13.241 7.302,0 13.241,5.94 13.241,13.241 0.001,7.301 -5.939,13.241 -13.241,13.241 z m 0,-17.655 c -2.435,0 -4.414,1.978 -4.414,4.414 0,2.435 1.978,4.414 4.414,4.414 2.436,0 4.414,-1.978 4.414,-4.414 0,-2.435 -1.978,-4.414 -4.414,-4.414 z"
   id="path62"
   inkscape:connector-curvature="0" />
	<path
   style="fill:#f5f5f5"
   d="m 158.897,207.449 c -7.302,0 -13.241,-5.94 -13.241,-13.241 0,-7.302 5.94,-13.241 13.241,-13.241 7.302,0 13.241,5.94 13.241,13.241 0,7.301 -5.94,13.241 -13.241,13.241 z m 0,-17.655 c -2.435,0 -4.414,1.978 -4.414,4.414 0,2.435 1.978,4.414 4.414,4.414 2.435,0 4.414,-1.978 4.414,-4.414 -0.001,-2.435 -1.979,-4.414 -4.414,-4.414 z"
   id="path64"
   inkscape:connector-curvature="0" />
	<path
   style="fill:#f5f5f5"
   d="m 176.552,216.277 c -7.302,0 -13.241,-5.94 -13.241,-13.241 0,-7.302 5.94,-13.241 13.241,-13.241 7.302,0 13.241,5.94 13.241,13.241 0,7.301 -5.94,13.241 -13.241,13.241 z m 0,-17.655 c -2.435,0 -4.414,1.978 -4.414,4.414 0,2.435 1.978,4.414 4.414,4.414 2.435,0 4.414,-1.978 4.414,-4.414 0,-2.436 -1.979,-4.414 -4.414,-4.414 z"
   id="path66"
   inkscape:connector-curvature="0" />
	<path
   style="fill:#f5f5f5"
   d="m 123.586,216.277 c -7.302,0 -13.241,-5.94 -13.241,-13.241 0,-7.302 5.94,-13.241 13.241,-13.241 7.302,0 13.241,5.94 13.241,13.241 0.001,7.301 -5.939,13.241 -13.241,13.241 z m 0,-17.655 c -2.435,0 -4.414,1.978 -4.414,4.414 0,2.435 1.978,4.414 4.414,4.414 2.436,0 4.414,-1.979 4.414,-4.415 0,-2.435 -1.978,-4.413 -4.414,-4.413 z"
   id="path68"
   inkscape:connector-curvature="0" />
</g>
<path
   style="fill:#fab446"
   d="m 176.552,203.035 v 4.414 c 0,2.434 -1.98,4.414 -4.414,4.414 -2.434,0 -4.414,-1.98 -4.414,-4.414 v -4.414 h 8.828 m 8.827,-8.827 h -26.483 v 13.241 c 0,7.302 5.94,13.241 13.241,13.241 7.302,0 13.241,-5.94 13.241,-13.241 v -13.241 z"
   id="path72"
   inkscape:connector-curvature="0" />
<path
   style="fill:#ffa0d2"
   d="m 172.138,176.553 v 0 c -4.875,0 -8.828,-3.953 -8.828,-8.828 v -8.828 c 0,-4.875 3.953,-8.828 8.828,-8.828 v 0 c 4.875,0 8.828,3.953 8.828,8.828 v 8.828 c 0,4.875 -3.953,8.828 -8.828,8.828 z"
   id="path74"
   inkscape:connector-curvature="0" />
<circle
   style="fill:#5064aa"
   cx="150.07001"
   cy="185.375"
   r="13.241"
   id="circle76" />
<rect
   x="145.66"
   y="88.274994"
   style="fill:#fab446"
   width="8.8280001"
   height="26.483"
   id="rect78" />
<path
   style="fill:#c8414b"
   d="m 123.586,132.415 -8.828,-8.828 5.171,-5.171 c 7.993,-7.993 18.835,-12.484 30.14,-12.484 v 0 c 11.305,0 22.146,4.491 30.14,12.484 l 5.171,5.171 -8.828,8.828 z"
   id="path80"
   inkscape:connector-curvature="0" />
<g
   id="g88"
   transform="translate(0,-88.276)">
	<circle
   style="fill:#ffd250"
   cx="150.07001"
   cy="211.86099"
   r="4.414"
   id="circle82" />
	<circle
   style="fill:#ffd250"
   cx="132.41"
   cy="211.86099"
   r="4.414"
   id="circle84" />
	<circle
   style="fill:#ffd250"
   cx="167.72"
   cy="211.86099"
   r="4.414"
   id="circle86" />
</g>
<g
   id="g94"
   transform="translate(0,-88.276)">
	<rect
   x="70.620003"
   y="256.00101"
   style="fill:#c8414b"
   width="44.139999"
   height="8.8280001"
   id="rect90" />
	<polygon
   style="fill:#c8414b"
   points="70.621,282.484 70.621,291.311 97.103,282.484 97.103,273.656 "
   id="polygon92" />
</g>
<g
   id="g96"
   transform="translate(0,-88.276)">
</g>
<g
   id="g98"
   transform="translate(0,-88.276)">
</g>
<g
   id="g100"
   transform="translate(0,-88.276)">
</g>
<g
   id="g102"
   transform="translate(0,-88.276)">
</g>
<g
   id="g104"
   transform="translate(0,-88.276)">
</g>
<g
   id="g106"
   transform="translate(0,-88.276)">
</g>
<g
   id="g108"
   transform="translate(0,-88.276)">
</g>
<g
   id="g110"
   transform="translate(0,-88.276)">
</g>
<g
   id="g112"
   transform="translate(0,-88.276)">
</g>
<g
   id="g114"
   transform="translate(0,-88.276)">
</g>
<g
   id="g116"
   transform="translate(0,-88.276)">
</g>
<g
   id="g118"
   transform="translate(0,-88.276)">
</g>
<g
   id="g120"
   transform="translate(0,-88.276)">
</g>
<g
   id="g122"
   transform="translate(0,-88.276)">
</g>
<g
   id="g124"
   transform="translate(0,-88.276)">
</g>
</svg>
