<?xml version="1.0" encoding="utf-8"?>
<!-- Generator: Adobe Illustrator 24.2.0, SVG Export Plug-In . SVG Version: 6.00 Build 0)  -->
<svg version="1.1" id="Layer_1" xmlns="http://www.w3.org/2000/svg" xmlns:xlink="http://www.w3.org/1999/xlink" x="0px" y="0px"
	 viewBox="0 0 595.3 131.8" style="enable-background:new 0 0 595.3 131.8;" xml:space="preserve">
<style type="text/css">
	.st0{fill:none;stroke:#010202;stroke-miterlimit:10;}
</style>
<g>
	<g>
		<defs>
			<path id="SVGID_1_" d="M121.2,43.3c-0.2,0.1-0.4,0.2-0.7,0.3c-0.3,0.1-0.6,0.1-0.9,0.2c-0.4,0-0.7,0.1-1,0.3
				c-1,0.4-1.8,1.1-2.4,2.1c-0.6,1-1.2,2.2-2,3.8L98.5,83.7c-0.2,0.4-0.3,0.6-0.4,0.8c-0.1,0.2-0.3,0.3-0.5,0.3
				c-0.3,0-0.5-0.1-0.5-0.3c0-0.2-0.1-0.4-0.2-0.8l-6.2-38c-0.1-0.7-0.3-1.2-0.6-1.5c-0.3-0.3-0.6-0.5-0.9-0.7
				c-0.3-0.2-0.6-0.3-0.8-0.4c-0.2-0.1-0.4-0.3-0.4-0.6c0-0.5,0.4-0.7,1.3-0.7c0.2,0,0.6,0,1.2,0.1c0.6,0,1.3,0.1,2.3,0.1
				c1.4,0,2.5,0,3.4-0.1c0.9-0.1,1.6-0.1,2-0.1c0.8,0,1.2,0.3,1.2,0.9c0,0.4-0.2,0.6-0.6,0.7c-0.4,0.1-0.9,0.2-1.4,0.3
				c-0.5,0.1-1,0.2-1.4,0.5c-0.4,0.2-0.6,0.6-0.6,1.3c0,0.3,0.1,0.9,0.2,1.9l4.7,29.5l12.3-28.5c0.7-1.5,1-2.5,1-3
				c0-0.4-0.2-0.7-0.6-0.9c-0.4-0.2-0.9-0.3-1.3-0.4c-0.5-0.1-0.9-0.2-1.4-0.3c-0.4-0.1-0.6-0.4-0.6-0.8c0-0.7,0.5-1,1.5-1
				c0.4,0,0.9,0.1,1.6,0.2c0.7,0.1,1.5,0.2,2.6,0.2c1.5,0,2.7-0.1,3.5-0.2c0.9-0.1,1.4-0.2,1.7-0.2c0.9,0,1.3,0.3,1.3,0.9
				C121.5,43,121.4,43.2,121.2,43.3L121.2,43.3z M130.8,47.3c-0.6,0.9-1.3,1.4-2.2,1.4c-0.6,0-1.1-0.2-1.5-0.7
				c-0.4-0.5-0.5-1.2-0.5-2.1c0-1.1,0.3-2.1,1-3c0.7-0.9,1.4-1.4,2.2-1.4c0.6,0,1.1,0.2,1.4,0.7c0.4,0.4,0.5,1,0.5,1.7
				C131.7,45.2,131.4,46.3,130.8,47.3L130.8,47.3z M128.3,56.1c0,0.9-0.2,2-0.5,3.1s-0.7,2.4-1.1,3.7l-4.8,14.9
				c-0.4,1.3-0.6,2.2-0.6,2.6c0,0.9,0.3,1.4,0.9,1.4c1.1,0,2.3-1.1,3.6-3.4c0.7-1.2,1.2-2.1,1.5-2.7c0.2-0.6,0.5-0.8,0.6-0.8
				c0.3,0,0.5,0.2,0.5,0.5c0,0.8-0.9,2.5-2.7,5.2c-1,1.6-2.1,2.7-3.1,3.5c-1,0.8-2,1.2-2.9,1.2c-1.8,0-2.7-1.1-2.7-3.4
				c0-1.2,0.2-2.6,0.7-4.3c0.5-1.7,1.2-3.8,2-6.2l2.8-8.1c0.4-1.2,0.7-2.2,1-3.1c0.3-0.9,0.4-1.6,0.4-2.3c0-0.5-0.1-0.8-0.2-1.1
				c-0.1-0.2-0.4-0.3-0.8-0.3c-0.5,0-1.1,0.3-1.6,0.8c-0.5,0.6-1,1.2-1.5,1.9c-0.5,0.7-0.9,1.3-1.3,1.9c-0.4,0.6-0.7,0.8-0.8,0.8
				c-0.2,0-0.3-0.2-0.3-0.6c0-0.2,0.2-0.6,0.5-1.3c0.4-0.7,0.9-1.5,1.8-2.6c2.3-2.9,4.3-4.3,6.1-4.3c0.8,0,1.4,0.2,1.8,0.7
				C128,54.5,128.3,55.2,128.3,56.1L128.3,56.1z M162.4,55.3l-5.7,20.5c-0.3,0.9-0.5,1.7-0.5,2.3c-0.1,0.6-0.1,1-0.1,1.1
				c0,0.9,0.2,1.4,0.7,1.4c0.8,0,1.8-0.9,3.2-2.8c0.6-0.8,1-1.4,1.1-1.9c0.2-0.4,0.4-0.7,0.8-0.7c0.2,0,0.3,0.2,0.3,0.5
				c0,0.9-0.7,2.4-2.2,4.4c-2.5,3.6-4.7,5.4-6.6,5.4c-1.4,0-2.2-1-2.2-2.9c0-1.1,0.1-2.3,0.4-3.5c0.3-1.2,0.6-2.4,1-3.7l2-7.4
				c-3.4,5.8-6.3,10.1-8.9,13c-2.6,2.9-5,4.4-7.2,4.4c-1.7,0-3-0.6-4-1.9c-1-1.3-1.5-3.1-1.5-5.4c0-2.5,0.6-5.1,1.7-7.9
				c1.1-2.8,2.9-5.6,5.3-8.6c2.3-2.8,4.6-4.9,6.9-6.3c2.4-1.4,4.4-2,6.2-2c1.2,0,2.2,0.2,2.9,0.7c0.7,0.5,1.3,0.7,1.6,0.7
				c0.2,0,0.3-0.1,0.5-0.3c0.2-0.2,0.3-0.4,0.6-0.7c0.2-0.2,0.5-0.5,0.8-0.7c0.3-0.2,0.8-0.3,1.2-0.3c0.6,0,1.1,0.1,1.3,0.2
				c0.2,0.1,0.3,0.4,0.3,0.9C162.8,54.1,162.7,54.6,162.4,55.3L162.4,55.3z M156.2,55.7c-0.7-0.7-1.6-1.1-2.8-1.1
				c-1.3,0-3,0.8-5,2.5c-2.1,1.7-4.1,4.3-6.1,7.7c-1.6,2.7-2.7,5.2-3.5,7.4c-0.8,2.2-1.1,4.1-1.1,5.6c0,1.3,0.3,2.3,0.9,3
				c0.6,0.7,1.3,1,2.2,1c1.3,0,2.6-0.7,4.2-2.2c1.5-1.5,3.3-3.7,5.3-6.7c4.7-6.9,7.1-11.6,7.1-14.2
				C157.2,57.4,156.9,56.4,156.2,55.7L156.2,55.7z M181.4,47.3c-0.6,0.9-1.3,1.4-2.1,1.4c-0.6,0-1.1-0.2-1.5-0.7
				c-0.4-0.5-0.5-1.2-0.5-2.1c0-1.1,0.3-2.1,0.9-3c0.6-0.9,1.3-1.4,2.2-1.4c0.6,0,1.1,0.2,1.4,0.7c0.4,0.4,0.5,1,0.5,1.7
				C182.4,45.2,182,46.3,181.4,47.3L181.4,47.3z M178.9,55.9c0,0.5-0.1,1-0.2,1.6c-0.1,0.6-0.3,1.3-0.5,2l-6.8,25.1
				c-0.7,2.6-1.5,4.8-2.4,6.6c-0.9,1.9-1.9,3.4-2.9,4.7c-1,1.3-2.1,2.2-3.1,2.8c-1.1,0.6-2.1,0.9-3.1,0.9c-1.4,0-2.6-0.4-3.5-1.2
				c-0.9-0.8-1.4-1.7-1.4-2.8c0-0.7,0.2-1.3,0.6-1.7c0.4-0.4,0.9-0.6,1.4-0.6c0.5,0,1,0.2,1.3,0.7c0.3,0.4,0.7,0.9,0.9,1.5
				c0.3,0.5,0.6,1,0.9,1.5c0.3,0.4,0.7,0.7,1.2,0.7c0.7,0,1.3-0.4,1.8-1.1c0.5-0.8,1.1-1.9,1.7-3.6c0.6-1.6,1.2-3.6,1.8-6.1
				c0.7-2.5,1.5-5.4,2.4-8.8l4.9-17.8c0.2-0.8,0.4-1.4,0.4-1.9c0.1-0.5,0.1-0.8,0.1-0.9c0-0.5-0.3-0.7-0.9-0.7
				c-0.4,0-0.9,0.3-1.4,0.8c-0.5,0.6-1,1.2-1.5,1.8c-0.5,0.6-0.9,1.3-1.3,1.8c-0.4,0.6-0.7,0.8-0.8,0.8c-0.3,0-0.4-0.2-0.4-0.6
				c0-0.2,0.2-0.6,0.6-1.3c0.4-0.7,1-1.5,1.8-2.6c1.2-1.4,2.2-2.5,3.2-3.2c1-0.7,1.9-1.1,2.9-1.1c0.7,0,1.2,0.2,1.7,0.7
				C178.6,54.4,178.9,55,178.9,55.9L178.9,55.9z M211.7,55.3L206,75.7c-0.3,0.9-0.5,1.7-0.5,2.3c-0.1,0.6-0.1,1-0.1,1.1
				c0,0.9,0.2,1.4,0.7,1.4c0.8,0,1.8-0.9,3.2-2.8c0.6-0.8,1-1.4,1.1-1.9c0.2-0.4,0.4-0.7,0.8-0.7c0.2,0,0.3,0.2,0.3,0.5
				c0,0.9-0.7,2.4-2.2,4.4c-2.5,3.6-4.7,5.4-6.6,5.4c-1.4,0-2.2-1-2.2-2.9c0-1.1,0.1-2.3,0.4-3.5c0.3-1.2,0.6-2.4,1-3.7l2-7.4
				c-3.4,5.8-6.3,10.1-8.9,13c-2.6,2.9-5,4.4-7.2,4.4c-1.7,0-3-0.6-4-1.9c-1-1.3-1.5-3.1-1.5-5.4c0-2.5,0.6-5.1,1.7-7.9
				c1.1-2.8,2.9-5.6,5.3-8.6c2.3-2.8,4.6-4.9,6.9-6.3c2.4-1.4,4.4-2,6.2-2c1.2,0,2.2,0.2,2.9,0.7c0.7,0.5,1.3,0.7,1.6,0.7
				c0.2,0,0.3-0.1,0.5-0.3c0.2-0.2,0.3-0.4,0.6-0.7c0.2-0.2,0.5-0.5,0.8-0.7c0.3-0.2,0.8-0.3,1.2-0.3c0.6,0,1.1,0.1,1.3,0.2
				c0.2,0.1,0.3,0.4,0.3,0.9C212,54.1,211.9,54.6,211.7,55.3L211.7,55.3z M205.5,55.7c-0.7-0.7-1.6-1.1-2.8-1.1c-1.3,0-3,0.8-5,2.5
				c-2.1,1.7-4.1,4.3-6.1,7.7c-1.6,2.7-2.7,5.2-3.5,7.4c-0.8,2.2-1.1,4.1-1.1,5.6c0,1.3,0.3,2.3,0.9,3c0.6,0.7,1.3,1,2.2,1
				c1.3,0,2.6-0.7,4.2-2.2c1.5-1.5,3.3-3.7,5.3-6.7c4.7-6.9,7.1-11.6,7.1-14.2C206.5,57.4,206.1,56.4,205.5,55.7L205.5,55.7z
				 M239.2,59.8c-0.5,0.7-1.1,1.1-1.8,1.1c-0.5,0-1-0.2-1.3-0.5c-0.3-0.3-0.5-0.8-0.5-1.4c0-0.5-0.1-0.9-0.3-1.2
				c-0.2-0.3-0.5-0.4-0.7-0.4c-0.8,0-2.2,1.7-4.2,5.2c-2.1,3.5-4.4,8.8-7.2,15.8c-0.5,1.3-0.9,2.3-1.1,3.1c-0.2,0.8-0.5,1.3-0.7,1.7
				c-0.2,0.4-0.4,0.7-0.7,0.8c-0.3,0.1-0.7,0.2-1.3,0.2c-1.1,0-1.6-0.3-1.6-0.8c0-0.1,0.1-0.4,0.2-0.9l5-18.9
				c0.3-1.2,0.6-2.3,0.7-3.2c0.2-0.9,0.3-1.7,0.3-2.3c0-0.9-0.3-1.3-1-1.3c-0.6,0-1.2,0.3-1.8,0.9c-0.6,0.6-1.1,1.3-1.7,2
				c-0.5,0.7-1,1.4-1.4,2c-0.4,0.6-0.7,0.9-0.9,0.9c-0.3,0-0.5-0.2-0.5-0.7c0-0.2,0.2-0.7,0.7-1.5c0.4-0.8,1.2-1.8,2.2-3
				c2.4-2.9,4.5-4.3,6.1-4.3c0.7,0,1.2,0.3,1.6,0.8c0.4,0.5,0.6,1.3,0.6,2.3c0,0.4-0.1,1.1-0.2,2.2c-0.1,1.1-0.4,2.5-0.8,4l-2.6,9.7
				c2.6-6.3,4.9-10.9,6.9-14c2-3.1,4-4.6,5.9-4.6c0.8,0,1.4,0.3,2,0.9c0.6,0.6,0.8,1.4,0.8,2.5C240,58.2,239.7,59.1,239.2,59.8
				L239.2,59.8z M265.1,71.5c-0.9,2.6-2.3,5-4,7.3c-3.3,4.2-6.8,6.4-10.3,6.4c-1.2,0-2.2-0.2-3.1-0.7c-0.9-0.5-1.8-1.2-2.7-2.2
				l-2.4,11.5c-0.1,0.4-0.1,0.8-0.1,1.1c0,0.7,0.2,1.2,0.6,1.4c0.4,0.3,0.9,0.5,1.4,0.7c0.5,0.2,1,0.3,1.4,0.4
				c0.4,0.1,0.6,0.3,0.6,0.6c0,0.5-0.2,0.7-0.7,0.7c-0.5,0-1.3-0.1-2.5-0.2c-1.2-0.2-2.7-0.2-4.5-0.2c-1.3,0-2.3,0.1-3.1,0.2
				c-0.8,0.2-1.4,0.2-1.9,0.2c-0.8,0-1.1-0.2-1.1-0.5c0-0.5,0.3-0.8,0.8-0.9c0.6-0.1,1.3-0.3,2.3-0.7c0.5-0.2,1-0.4,1.2-0.6
				c0.3-0.2,0.5-0.4,0.7-0.7c0.2-0.3,0.3-0.7,0.4-1.1c0.1-0.4,0.3-1,0.4-1.7l8.6-35.4c-1,0.5-1.8,1-2.4,1.3c-0.6,0.3-1,0.5-1.2,0.5
				c-0.4,0-0.5-0.1-0.5-0.3c0-0.6,0.4-1.1,1.1-1.6c0.8-0.5,1.9-1,3.5-1.6l1.5-6.4c0.1-0.5,0.3-0.9,0.5-1c0.2-0.1,0.5-0.2,0.9-0.2
				h0.9c0.6,0,1.1,0,1.3,0c0.2,0,0.4,0.1,0.4,0.4v0.3c0,0.1,0,0.3-0.1,0.5l-1.2,5.1c0.9-0.2,1.8-0.4,2.6-0.5
				c0.8-0.1,1.6-0.2,2.4-0.2c3.1,0,5.5,0.9,7.2,2.7c1.7,1.8,2.5,4.4,2.5,7.7C266.5,66.3,266,68.9,265.1,71.5L265.1,71.5z
				 M260.8,57.1c-1.2-1.3-3-1.9-5.3-1.9c-1.1,0-2.5,0.2-4.2,0.7L247.1,73c-0.3,1.3-0.6,2.3-0.7,3.3c-0.2,0.9-0.3,1.8-0.3,2.6
				c0,1.4,0.4,2.5,1.1,3.4c0.7,0.8,1.7,1.2,3,1.2c3.2,0,5.9-2,8-6.1c1.5-2.9,2.7-5.7,3.4-8.3c0.7-2.6,1.1-4.8,1.1-6.6
				C262.7,60.1,262,58.3,260.8,57.1L260.8,57.1z M295.4,73.7c-0.9,2.3-2.2,4.3-3.7,6c-1.5,1.7-3.2,3.1-5.1,4.1
				c-1.9,1-3.8,1.5-5.7,1.5c-1.4,0-2.8-0.3-4.1-0.9c-1.3-0.6-2.4-1.5-3.3-2.6c-0.9-1.1-1.7-2.5-2.2-4.1c-0.5-1.6-0.8-3.3-0.8-5.3
				c0-2.7,0.5-5.3,1.4-7.6c0.9-2.3,2.2-4.4,3.7-6c1.5-1.7,3.2-3,5.1-4c1.9-1,3.7-1.4,5.6-1.4c1.5,0,2.9,0.3,4.2,0.9
				c1.3,0.6,2.4,1.5,3.3,2.6c0.9,1.1,1.7,2.5,2.2,4.1c0.5,1.6,0.8,3.4,0.8,5.4C296.8,69,296.3,71.4,295.4,73.7L295.4,73.7z
				 M291.1,57.1c-1-1.4-2.5-2.1-4.4-2.1c-1.4,0-2.7,0.5-4.2,1.4c-1.4,1-2.7,2.4-3.8,4.3c-1.3,2.2-2.3,4.5-3,6.8
				c-0.7,2.4-1,4.7-1,6.9c0,2.9,0.5,5.1,1.7,6.7c1.1,1.6,2.6,2.3,4.4,2.3c1.4,0,2.8-0.5,4.2-1.6c1.4-1.1,2.7-2.5,3.8-4.3
				c1.1-1.8,2-3.9,2.8-6.4c0.7-2.4,1.1-5,1.1-7.8C292.6,60.7,292.1,58.6,291.1,57.1L291.1,57.1z M324,59.8c-0.5,0.7-1.1,1.1-1.8,1.1
				c-0.5,0-1-0.2-1.3-0.5c-0.3-0.3-0.5-0.8-0.5-1.4c0-0.5-0.1-0.9-0.3-1.2c-0.2-0.3-0.5-0.4-0.7-0.4c-0.8,0-2.2,1.7-4.2,5.2
				c-2.1,3.5-4.4,8.8-7.2,15.8c-0.5,1.3-0.9,2.3-1.1,3.1c-0.2,0.8-0.5,1.3-0.7,1.7c-0.2,0.4-0.4,0.7-0.7,0.8
				c-0.3,0.1-0.7,0.2-1.3,0.2c-1.1,0-1.6-0.3-1.6-0.8c0-0.1,0.1-0.4,0.2-0.9l5-18.9c0.3-1.2,0.6-2.3,0.7-3.2
				c0.2-0.9,0.3-1.7,0.3-2.3c0-0.9-0.3-1.3-1-1.3c-0.6,0-1.2,0.3-1.8,0.9c-0.6,0.6-1.1,1.3-1.7,2c-0.5,0.7-1,1.4-1.4,2
				c-0.4,0.6-0.7,0.9-0.9,0.9c-0.3,0-0.5-0.2-0.5-0.7c0-0.2,0.2-0.7,0.7-1.5c0.4-0.8,1.2-1.8,2.2-3c2.4-2.9,4.5-4.3,6.1-4.3
				c0.7,0,1.2,0.3,1.6,0.8c0.4,0.5,0.6,1.3,0.6,2.3c0,0.4-0.1,1.1-0.2,2.2c-0.1,1.1-0.4,2.5-0.8,4l-2.6,9.7c2.6-6.3,4.9-10.9,6.9-14
				c2-3.1,4-4.6,5.9-4.6c0.8,0,1.4,0.3,2,0.9c0.6,0.6,0.8,1.4,0.8,2.5C324.8,58.2,324.6,59.1,324,59.8L324,59.8z M353.5,84.2
				c-0.4,0-0.9-0.1-1.6-0.2c-0.7-0.1-1.4-0.2-2.3-0.2c-0.9,0-1.9,0.1-2.7,0.2c-0.9,0.1-1.8,0.2-2.7,0.2c-0.8,0-1.2-0.3-1.2-0.8
				s0.2-0.9,0.6-1c0.4-0.1,0.9-0.3,1.4-0.4c0.5-0.1,1-0.3,1.4-0.5c0.4-0.2,0.6-0.8,0.6-1.6c0-0.2,0-0.5,0-0.7c0-0.2-0.1-0.5-0.1-0.8
				L345.2,68h-12.1l-3.5,8.1c-0.5,1.2-0.7,2.2-0.7,3c0,1.6,0.7,2.6,2.2,2.9c0.6,0.1,1.2,0.2,1.6,0.3c0.4,0,0.6,0.4,0.6,0.9
				c0,0.6-0.3,0.9-0.9,0.9c-0.3,0-0.9,0-1.8-0.1c-0.9-0.1-2.1-0.1-3.7-0.1c-1.6,0-2.9,0.1-3.9,0.2c-0.9,0.1-1.5,0.2-1.8,0.2
				c-0.4,0-0.6-0.2-0.6-0.7c0-0.6,0.2-1,0.7-1.2c0.5-0.2,1.2-0.6,2-1c0.8-0.4,1.5-1.1,2.2-2.1c0.7-1,1.4-2.3,2.2-3.9l16-33.1
				c0.1-0.2,0.2-0.5,0.3-0.7c0.1-0.3,0.3-0.4,0.7-0.4c0.3,0,0.5,0.1,0.5,0.3c0,0.2,0.1,0.6,0.2,1l6.1,37.4c0.1,0.9,0.4,1.5,0.7,1.8
				c0.3,0.4,0.6,0.6,1,0.8c0.3,0.2,0.6,0.3,0.9,0.4c0.2,0.1,0.4,0.3,0.4,0.6C354.6,84,354.2,84.2,353.5,84.2L353.5,84.2z
				 M342.4,48.6L334,66H345L342.4,48.6L342.4,48.6z M380.5,59.8c-0.5,0.7-1.1,1.1-1.8,1.1c-0.5,0-1-0.2-1.3-0.5
				c-0.3-0.3-0.5-0.8-0.5-1.4c0-0.5-0.1-0.9-0.3-1.2c-0.2-0.3-0.5-0.4-0.7-0.4c-0.8,0-2.2,1.7-4.2,5.2c-2.1,3.5-4.4,8.8-7.2,15.8
				c-0.5,1.3-0.9,2.3-1.1,3.1c-0.2,0.8-0.5,1.3-0.7,1.7c-0.2,0.4-0.4,0.7-0.7,0.8c-0.3,0.1-0.7,0.2-1.3,0.2c-1.1,0-1.6-0.3-1.6-0.8
				c0-0.1,0.1-0.4,0.2-0.9l5-18.9c0.3-1.2,0.6-2.3,0.7-3.2c0.2-0.9,0.3-1.7,0.3-2.3c0-0.9-0.3-1.3-1-1.3c-0.6,0-1.2,0.3-1.8,0.9
				c-0.6,0.6-1.1,1.3-1.7,2c-0.5,0.7-1,1.4-1.4,2c-0.4,0.6-0.7,0.9-0.9,0.9c-0.3,0-0.5-0.2-0.5-0.7c0-0.2,0.2-0.7,0.7-1.5
				c0.4-0.8,1.2-1.8,2.2-3c2.4-2.9,4.5-4.3,6.1-4.3c0.7,0,1.2,0.3,1.6,0.8c0.4,0.5,0.6,1.3,0.6,2.3c0,0.4-0.1,1.1-0.2,2.2
				c-0.1,1.1-0.4,2.5-0.8,4l-2.6,9.7c2.6-6.3,4.9-10.9,6.9-14c2-3.1,4-4.6,5.9-4.6c0.8,0,1.4,0.3,2,0.9c0.6,0.6,0.8,1.4,0.8,2.5
				C381.3,58.2,381,59.1,380.5,59.8L380.5,59.8z M408.2,56.6c-0.3,0.3-0.6,0.4-0.9,0.4h-4.5c0.7,1.1,1.3,2.2,1.7,3.2
				c0.4,1,0.6,2.1,0.6,3.3c0,1.7-0.3,3.2-0.9,4.6c-0.6,1.4-1.5,2.7-2.5,3.8c-1,1.1-2.2,1.9-3.5,2.6c-1.3,0.6-2.7,0.9-4.2,0.9
				c-0.9,0-1.7-0.1-2.3-0.4c-0.7-0.2-1.2-0.5-1.7-0.8c-0.5-0.3-0.9-0.6-1.2-0.8c-0.3-0.2-0.6-0.4-0.8-0.4c-0.4,0-0.7,0.2-1.1,0.7
				c-0.4,0.5-0.6,1-0.6,1.7c0,0.9,0.3,1.6,1,2.1c0.7,0.6,1.6,1.1,2.9,1.6l5.3,2.2c2.6,1.1,4.5,2.3,5.8,3.6c1.3,1.3,1.9,3.1,1.9,5.2
				c0,1.4-0.3,2.7-0.9,3.9c-0.6,1.2-1.5,2.2-2.6,3c-1.1,0.9-2.5,1.5-4.1,2c-1.6,0.5-3.4,0.7-5.4,0.7c-2,0-3.8-0.2-5.3-0.7
				c-1.6-0.5-2.9-1.1-4-1.9c-1.1-0.8-1.9-1.8-2.5-2.9c-0.6-1.1-0.8-2.3-0.8-3.5c0-2.1,0.8-3.9,2.4-5.2c1.6-1.3,4.1-2.4,7.5-3.3
				c-2.5-0.9-3.7-2.5-3.7-4.8c0-0.8,0.1-1.6,0.4-2.2c0.3-0.6,0.6-1.2,1-1.6c0.4-0.5,0.7-0.9,1-1.2c0.3-0.4,0.4-0.7,0.4-1.1
				c0-0.3-0.1-0.6-0.3-1c-0.2-0.4-0.5-0.8-0.8-1.4c-0.3-0.6-0.6-1.2-0.8-2c-0.2-0.8-0.3-1.7-0.3-2.7c0-1.5,0.3-2.9,0.8-4.3
				c0.6-1.4,1.3-2.6,2.3-3.7c1-1.1,2.1-1.9,3.4-2.6c1.3-0.6,2.7-1,4.2-1c0.8,0,1.5,0.1,2.1,0.3c0.6,0.2,1.1,0.4,1.6,0.6
				c0.5,0.2,1,0.4,1.6,0.6c0.5,0.2,1.2,0.3,1.9,0.3h4.7c0.5,0,0.8,0.1,1.1,0.2c0.3,0.1,0.4,0.5,0.4,1
				C408.6,56,408.5,56.3,408.2,56.6L408.2,56.6z M386.3,83.8c-1.1,0.4-2,0.8-2.9,1.5c-0.8,0.5-1.4,1.3-1.9,2.2
				c-0.5,0.9-0.7,2-0.7,3.1c0,2.3,0.9,4.2,2.8,5.7c1.8,1.5,4.4,2.2,7.6,2.2c2.7,0,4.8-0.6,6.4-1.9c1.6-1.3,2.3-2.9,2.3-4.9
				c0-2.6-1.2-4.5-3.6-5.4l-6.2-2.7c-0.4-0.2-0.8-0.3-1.4-0.3C388.2,83.2,387.4,83.4,386.3,83.8L386.3,83.8z M399.7,55.8
				c-0.9-1.1-2.1-1.7-3.6-1.7c-1.1,0-2.2,0.3-3.1,1c-1,0.7-1.8,1.6-2.5,2.8c-0.7,1.2-1.2,2.6-1.7,4.1c-0.4,1.6-0.6,3.2-0.6,5
				c0,2.1,0.5,3.8,1.4,4.9c1,1.1,2.2,1.7,3.6,1.7c1.1,0,2.1-0.4,3-1.1s1.8-1.7,2.5-2.9c0.7-1.2,1.3-2.6,1.7-4.2
				c0.4-1.6,0.6-3.2,0.6-4.9C401.1,58.6,400.7,57,399.7,55.8L399.7,55.8z M428.1,67.7c-3.1,2-7.8,3.2-13.9,3.7
				c-0.1,1.4-0.2,2.4-0.2,2.9c0,2.5,0.6,4.4,1.7,5.8c1.1,1.3,2.5,2,4.3,2c2.4,0,4.8-1.4,7.1-4.1c0.7-0.8,1.1-1.5,1.3-2
				c0.2-0.5,0.5-0.8,0.9-0.8c0.3,0,0.4,0.2,0.4,0.7c0,0.4-0.2,0.9-0.5,1.5c-0.3,0.7-0.9,1.5-1.6,2.4c-2.9,3.8-6,5.6-9.1,5.6
				c-1.2,0-2.4-0.3-3.4-0.8c-1.1-0.6-2-1.3-2.8-2.4c-0.8-1-1.4-2.2-1.9-3.7c-0.4-1.4-0.7-3-0.7-4.8c0-2.5,0.5-4.9,1.4-7.4
				c0.9-2.5,2.3-4.8,4.2-7.1c1.7-2.1,3.5-3.7,5.4-4.7c1.9-1,3.7-1.5,5.4-1.5c2,0,3.7,0.6,4.9,1.9c1.3,1.3,1.9,2.9,1.9,4.8
				C432.8,63.1,431.3,65.8,428.1,67.7L428.1,67.7z M428,55.5c-0.6-0.8-1.4-1.1-2.5-1.1c-1,0-2.1,0.3-3.1,1c-1.1,0.7-2.1,1.7-3.1,3
				c-1,1.3-1.9,2.9-2.8,4.9c-0.9,1.9-1.6,4.1-2.2,6.6c4.7-0.2,8.3-1.4,10.8-3.5c2.5-2.1,3.7-4.7,3.7-7.8
				C428.9,57.3,428.6,56.3,428,55.5L428,55.5z M465.3,76.4c-0.5,0.9-1.2,2.1-2.3,3.6c-1.2,1.7-2.4,3-3.6,3.8
				c-1.2,0.8-2.3,1.2-3.2,1.2c-1.6,0-2.4-1-2.4-3.1c0-1,0.3-2.6,0.8-4.7c0.5-2.1,1.3-4.8,2.5-8l2.8-8.1c0.3-0.8,0.4-1.4,0.5-1.9
				c0.1-0.5,0.1-0.9,0.1-1.2c0-1.4-0.7-2.1-2-2.1c-0.6,0-1.5,0.4-2.5,1.1c-1,0.7-2.2,1.8-3.4,3.2c-1.3,1.4-2.5,3-3.9,5
				c-1.3,1.9-2.5,4.1-3.6,6.5c-0.9,2-1.7,3.8-2.2,5.3c-0.5,1.5-0.9,2.9-1.2,3.9c-0.3,1.1-0.6,1.9-0.8,2.5c-0.2,0.6-0.5,0.8-0.9,0.8
				h-2.9c-0.1,0-0.3-0.1-0.4-0.2c-0.1-0.1-0.2-0.3-0.2-0.4c0-0.1,0.1-0.5,0.3-1l4.7-15.6c0.6-2.2,1.1-4,1.5-5.5
				c0.4-1.5,0.5-2.6,0.5-3.4c0-0.9-0.3-1.3-0.9-1.3c-0.6,0-1.3,0.3-1.9,0.9c-0.6,0.6-1.2,1.3-1.8,2c-0.5,0.7-1,1.4-1.5,2
				c-0.4,0.6-0.8,0.9-1,0.9c-0.3,0-0.5-0.2-0.5-0.6c0-0.1,0.2-0.6,0.6-1.4c0.4-0.8,1.2-1.8,2.2-3c2.6-3.1,4.8-4.6,6.6-4.6
				c1.5,0,2.3,1.1,2.3,3.2c0,0.3-0.1,1-0.2,2.1c-0.1,1.1-0.4,2.5-0.9,4.2l-1.8,6.6c3-5.3,5.9-9.3,8.5-11.9c2.7-2.6,5.1-3.9,7.4-3.9
				c1.3,0,2.3,0.3,3,1c0.7,0.7,1.1,1.6,1.1,2.8c0,1.3-0.4,3.3-1.3,5.8l-5.3,15.5c-0.2,0.7-0.3,1.2-0.3,1.5c0,1,0.3,1.5,1,1.5
				c0.7,0,1.4-0.3,2.1-1c0.7-0.7,1.5-1.7,2.4-3.1c0.8-1.1,1.3-1.9,1.5-2.4c0.2-0.5,0.5-0.8,0.7-0.8c0.3,0,0.4,0.2,0.4,0.6
				C466,74.9,465.7,75.4,465.3,76.4L465.3,76.4z M485.7,56.2h-4.9l-3.6,13.6c-0.7,2.6-1.2,4.6-1.6,6.2c-0.4,1.6-0.6,2.7-0.6,3.4
				c0,0.4,0.1,0.8,0.3,1.1c0.2,0.3,0.4,0.4,0.6,0.4c0.6,0,1.7-1.2,3.2-3.5c0.6-0.9,1-1.7,1.2-2.2c0.2-0.5,0.4-0.8,0.7-0.8
				c0.4,0,0.5,0.2,0.5,0.7c0,0.7-0.8,2.1-2.3,4.4c-1.2,1.7-2.3,3.1-3.4,4c-1.1,0.9-2.1,1.3-2.8,1.3c-0.7,0-1.2-0.3-1.7-0.9
				c-0.4-0.6-0.6-1.4-0.6-2.5c0-2.2,0.9-6.3,2.6-12.3l3.6-12.9h-4.1c-0.1,0-0.2,0-0.3-0.1c-0.1-0.1-0.1-0.2-0.1-0.3
				c0-0.8,0.3-1.2,0.8-1.2h4.3l1.7-6.3c0.2-0.6,0.5-1,0.8-1.2c0.4-0.2,1-0.3,1.9-0.3c0.9,0,1.3,0.2,1.3,0.7c0,0.2-0.1,0.7-0.3,1.5
				l-1.6,5.6h4.9c0.3,0,0.5,0.1,0.5,0.4C486.5,55.8,486.2,56.2,485.7,56.2L485.7,56.2z M502,47.3c-0.6,0.9-1.3,1.4-2.2,1.4
				c-0.6,0-1.1-0.2-1.5-0.7c-0.4-0.5-0.5-1.2-0.5-2.1c0-1.1,0.3-2.1,1-3c0.7-0.9,1.4-1.4,2.2-1.4c0.6,0,1.1,0.2,1.4,0.7
				c0.4,0.4,0.5,1,0.5,1.7C502.9,45.2,502.6,46.3,502,47.3L502,47.3z M499.5,56.1c0,0.9-0.2,2-0.5,3.1c-0.3,1.1-0.7,2.4-1.1,3.7
				L493,77.7c-0.4,1.3-0.6,2.2-0.6,2.6c0,0.9,0.3,1.4,0.9,1.4c1.1,0,2.3-1.1,3.6-3.4c0.7-1.2,1.2-2.1,1.5-2.7
				c0.2-0.6,0.5-0.8,0.6-0.8c0.3,0,0.5,0.2,0.5,0.5c0,0.8-0.9,2.5-2.7,5.2c-1,1.6-2.1,2.7-3.1,3.5c-1,0.8-2,1.2-2.9,1.2
				c-1.8,0-2.7-1.1-2.7-3.4c0-1.2,0.2-2.6,0.7-4.3c0.5-1.7,1.2-3.8,2-6.2l2.8-8.1c0.4-1.2,0.7-2.2,1-3.1c0.3-0.9,0.4-1.6,0.4-2.3
				c0-0.5-0.1-0.8-0.2-1.1c-0.1-0.2-0.4-0.3-0.8-0.3c-0.5,0-1.1,0.3-1.6,0.8c-0.5,0.6-1,1.2-1.5,1.9c-0.5,0.7-0.9,1.3-1.3,1.9
				c-0.4,0.6-0.7,0.8-0.8,0.8c-0.2,0-0.3-0.2-0.3-0.6c0-0.2,0.2-0.6,0.5-1.3c0.4-0.7,0.9-1.5,1.8-2.6c2.3-2.9,4.3-4.3,6.1-4.3
				c0.8,0,1.4,0.2,1.8,0.7C499.2,54.5,499.5,55.2,499.5,56.1L499.5,56.1z M534.6,76.4c-0.5,0.9-1.2,2.1-2.3,3.6
				c-1.2,1.7-2.4,3-3.6,3.8c-1.2,0.8-2.3,1.2-3.2,1.2c-1.6,0-2.4-1-2.4-3.1c0-1,0.3-2.6,0.8-4.7c0.5-2.1,1.3-4.8,2.5-8l2.8-8.1
				c0.3-0.8,0.4-1.4,0.5-1.9c0.1-0.5,0.1-0.9,0.1-1.2c0-1.4-0.7-2.1-2-2.1c-0.6,0-1.5,0.4-2.5,1.1c-1,0.7-2.2,1.8-3.4,3.2
				c-1.3,1.4-2.5,3-3.9,5c-1.3,1.9-2.5,4.1-3.6,6.5c-0.9,2-1.7,3.8-2.2,5.3c-0.5,1.5-0.9,2.9-1.2,3.9c-0.3,1.1-0.6,1.9-0.8,2.5
				c-0.2,0.6-0.5,0.8-0.9,0.8h-2.9c-0.1,0-0.3-0.1-0.4-0.2c-0.1-0.1-0.2-0.3-0.2-0.4c0-0.1,0.1-0.5,0.3-1l4.7-15.6
				c0.6-2.2,1.1-4,1.5-5.5c0.4-1.5,0.5-2.6,0.5-3.4c0-0.9-0.3-1.3-0.9-1.3c-0.6,0-1.3,0.3-1.9,0.9c-0.6,0.6-1.2,1.3-1.8,2
				c-0.5,0.7-1,1.4-1.4,2c-0.4,0.6-0.8,0.9-1,0.9c-0.3,0-0.5-0.2-0.5-0.6c0-0.1,0.2-0.6,0.6-1.4c0.4-0.8,1.2-1.8,2.2-3
				c2.6-3.1,4.8-4.6,6.6-4.6c1.5,0,2.3,1.1,2.3,3.2c0,0.3-0.1,1-0.2,2.1c-0.1,1.1-0.4,2.5-0.9,4.2l-1.8,6.6c3-5.3,5.9-9.3,8.5-11.9
				c2.7-2.6,5.1-3.9,7.4-3.9c1.3,0,2.3,0.3,3,1c0.7,0.7,1.1,1.6,1.1,2.8c0,1.3-0.4,3.3-1.3,5.8l-5.3,15.5c-0.2,0.7-0.3,1.2-0.3,1.5
				c0,1,0.3,1.5,1,1.5c0.7,0,1.4-0.3,2.1-1c0.7-0.7,1.5-1.7,2.4-3.1c0.8-1.1,1.3-1.9,1.5-2.4c0.2-0.5,0.5-0.8,0.7-0.8
				c0.3,0,0.4,0.2,0.4,0.6C535.3,74.9,535.1,75.4,534.6,76.4L534.6,76.4z M568,55.3l-5.7,20.5c-0.3,0.9-0.4,1.7-0.5,2.3
				c-0.1,0.6-0.1,1-0.1,1.1c0,0.9,0.2,1.4,0.7,1.4c0.8,0,1.8-0.9,3.2-2.8c0.6-0.8,1-1.4,1.1-1.9c0.2-0.4,0.4-0.7,0.8-0.7
				c0.2,0,0.3,0.2,0.3,0.5c0,0.9-0.7,2.4-2.2,4.4c-2.5,3.6-4.7,5.4-6.6,5.4c-1.4,0-2.2-1-2.2-2.9c0-1.1,0.1-2.3,0.4-3.5
				c0.3-1.2,0.6-2.4,1-3.7l2-7.4c-3.4,5.8-6.3,10.1-8.9,13c-2.6,2.9-5,4.4-7.2,4.4c-1.7,0-3-0.6-4-1.9c-1-1.3-1.5-3.1-1.5-5.4
				c0-2.5,0.6-5.1,1.7-7.9c1.1-2.8,2.9-5.6,5.3-8.6c2.2-2.8,4.6-4.9,6.9-6.3c2.4-1.4,4.4-2,6.2-2c1.2,0,2.2,0.2,2.9,0.7
				c0.7,0.5,1.3,0.7,1.6,0.7c0.2,0,0.3-0.1,0.5-0.3c0.2-0.2,0.3-0.4,0.6-0.7c0.2-0.2,0.5-0.5,0.8-0.7c0.3-0.2,0.8-0.3,1.2-0.3
				c0.6,0,1.1,0.1,1.3,0.2c0.2,0.1,0.3,0.4,0.3,0.9C568.3,54.1,568.2,54.6,568,55.3L568,55.3z M561.8,55.7c-0.7-0.7-1.6-1.1-2.8-1.1
				c-1.3,0-3,0.8-5,2.5c-2,1.7-4.1,4.3-6.1,7.7c-1.6,2.7-2.7,5.2-3.5,7.4c-0.8,2.2-1.1,4.1-1.1,5.6c0,1.3,0.3,2.3,0.9,3
				c0.6,0.7,1.3,1,2.2,1c1.3,0,2.6-0.7,4.2-2.2c1.5-1.5,3.3-3.7,5.3-6.7c4.7-6.9,7.1-11.6,7.1-14.2
				C562.8,57.4,562.5,56.4,561.8,55.7L561.8,55.7z"/>
		</defs>
		<clipPath id="SVGID_2_">
			<use xlink:href="#SVGID_1_"  style="overflow:visible;"/>
		</clipPath>
		<g style="clip-path:url(#SVGID_2_);">
			
				<image style="overflow:visible;" width="348" height="67" xlink:href="813CE84936A1FD6D.jpg"  transform="matrix(1.6074 0 0 1.6074 27.0785 12.3808)">
			</image>
		</g>
	</g>
	<g>
		<defs>
			<path id="SVGID_3_" d="M412.9,89.1l-0.2,1c0,0.1-0.1,0.1-0.1,0.1c-0.1,0-0.1-0.1-0.1-0.2c0,0,0-0.1,0-0.2c0-0.1,0-0.1,0-0.2
				c0-0.2,0-0.3-0.1-0.4c0-0.1-0.1-0.1-0.3-0.1c-0.2,0-0.5,0.1-0.8,0.2c-0.3,0.1-0.5,0.3-0.8,0.5c-0.4,0.3-0.7,0.7-0.8,1.2
				c-0.2,0.4-0.3,0.9-0.3,1.4c0,0.5,0.1,0.9,0.3,1.2c0.2,0.3,0.6,0.4,1,0.4c0.2,0,0.3,0,0.4,0c0.1,0,0.2-0.1,0.3-0.2
				c0.1-0.2,0.1-0.4,0.1-0.5c0-0.1,0.1-0.2,0.1-0.3l0.1-0.6c0-0.1,0-0.2,0-0.2c0-0.1-0.1-0.2-0.2-0.3c0,0-0.1,0-0.1,0
				c0,0-0.1,0-0.1,0c0,0-0.1,0-0.1,0c0,0,0,0,0-0.1c0-0.1,0-0.1,0.1-0.1c0.1,0,0.2,0,0.3,0c0.1,0,0.2,0,0.4,0c0.2,0,0.3,0,0.4,0
				c0.1,0,0.2,0,0.2,0c0.1,0,0.1,0,0.1,0.1c0,0,0,0.1,0,0.1c0,0,0,0-0.1,0c0,0-0.1,0-0.1,0c0,0-0.1,0-0.1,0.1
				c-0.1,0.1-0.1,0.1-0.2,0.2c0,0.1-0.1,0.2-0.1,0.4l-0.1,0.4c0,0.1,0,0.2-0.1,0.3c0,0.1,0,0.3-0.1,0.5c-0.4,0.2-0.8,0.3-1.3,0.3
				c-0.3,0-0.5,0-0.8-0.1c-0.2-0.1-0.4-0.2-0.6-0.4c-0.2-0.2-0.3-0.4-0.4-0.6c-0.1-0.2-0.1-0.5-0.1-0.8c0-0.5,0.1-1,0.4-1.4
				c0.2-0.4,0.6-0.8,1.1-1.2c0.3-0.3,0.7-0.4,1.1-0.6c0.4-0.1,0.8-0.2,1.2-0.2C412.8,88.9,412.9,88.9,412.9,89.1
				C412.9,89.1,412.9,89.1,412.9,89.1L412.9,89.1z M417.3,90.6l-0.7,2.4c0,0.1-0.1,0.2-0.1,0.3c0,0.1,0,0.1,0,0.1
				c0,0.1,0,0.2,0.1,0.2c0.1,0,0.2-0.1,0.4-0.3c0.1-0.1,0.1-0.2,0.1-0.2c0-0.1,0.1-0.1,0.1-0.1c0,0,0,0,0,0.1c0,0.1-0.1,0.3-0.3,0.5
				c-0.3,0.4-0.5,0.6-0.8,0.6c-0.2,0-0.3-0.1-0.3-0.3c0-0.1,0-0.3,0.1-0.4c0-0.1,0.1-0.3,0.1-0.4l0.2-0.9c-0.4,0.7-0.7,1.2-1,1.5
				c-0.3,0.3-0.6,0.5-0.9,0.5c-0.2,0-0.4-0.1-0.5-0.2c-0.1-0.1-0.2-0.4-0.2-0.6c0-0.3,0.1-0.6,0.2-0.9c0.1-0.3,0.3-0.7,0.6-1
				c0.3-0.3,0.5-0.6,0.8-0.7c0.3-0.2,0.5-0.2,0.7-0.2c0.1,0,0.3,0,0.3,0.1c0.1,0.1,0.2,0.1,0.2,0.1c0,0,0,0,0.1,0c0,0,0,0,0.1-0.1
				c0,0,0.1-0.1,0.1-0.1c0,0,0.1,0,0.1,0c0.1,0,0.1,0,0.2,0c0,0,0,0,0,0.1C417.3,90.5,417.3,90.6,417.3,90.6L417.3,90.6z
				 M416.6,90.7c-0.1-0.1-0.2-0.1-0.3-0.1c-0.2,0-0.4,0.1-0.6,0.3c-0.2,0.2-0.5,0.5-0.7,0.9c-0.2,0.3-0.3,0.6-0.4,0.9
				c-0.1,0.3-0.1,0.5-0.1,0.7c0,0.2,0,0.3,0.1,0.3c0.1,0.1,0.2,0.1,0.3,0.1c0.1,0,0.3-0.1,0.5-0.3c0.2-0.2,0.4-0.4,0.6-0.8
				c0.6-0.8,0.8-1.4,0.8-1.7C416.7,90.9,416.7,90.8,416.6,90.7L416.6,90.7z M420.4,88.6l-1.2,4.6c0,0.1,0,0.1,0,0.2
				c0,0.1,0,0.1,0,0.1c0,0.1,0,0.1,0.1,0.1c0.1,0,0.3-0.2,0.5-0.6c0-0.1,0.1-0.1,0.1-0.2c0,0,0-0.1,0.1-0.1c0,0,0,0,0,0.1
				c0,0,0,0.1-0.1,0.2c-0.1,0.1-0.1,0.2-0.3,0.4c-0.1,0.2-0.2,0.3-0.4,0.4c-0.1,0.1-0.2,0.1-0.3,0.1c-0.2,0-0.3-0.1-0.3-0.3
				c0-0.2,0.1-0.6,0.2-1l1-3.5c0-0.1,0.1-0.2,0.1-0.3c0,0,0-0.1,0-0.1c0,0-0.1,0-0.1,0c0,0,0,0,0,0c0,0,0,0,0,0
				c-0.1,0-0.1,0-0.1-0.1c0,0,0-0.1,0-0.1c0,0,0.1,0,0.1,0c0,0,0.1,0,0.2,0c0.1,0,0.1,0,0.2,0c0.1,0,0.3-0.1,0.3-0.1
				c0.1-0.1,0.1-0.1,0.2-0.1C420.5,88.5,420.5,88.5,420.4,88.6C420.5,88.6,420.5,88.6,420.4,88.6L420.4,88.6z M423.6,92.1
				c-0.4,0.2-0.9,0.4-1.7,0.4c0,0.2,0,0.3,0,0.3c0,0.3,0.1,0.5,0.2,0.7c0.1,0.2,0.3,0.2,0.5,0.2c0.3,0,0.6-0.2,0.8-0.5
				c0.1-0.1,0.1-0.2,0.2-0.2c0-0.1,0.1-0.1,0.1-0.1c0,0,0,0,0,0.1c0,0,0,0.1-0.1,0.2c0,0.1-0.1,0.2-0.2,0.3
				c-0.3,0.4-0.7,0.7-1.1,0.7c-0.1,0-0.3,0-0.4-0.1c-0.1-0.1-0.2-0.2-0.3-0.3c-0.1-0.1-0.2-0.3-0.2-0.4c-0.1-0.2-0.1-0.4-0.1-0.6
				c0-0.3,0.1-0.6,0.2-0.9c0.1-0.3,0.3-0.6,0.5-0.8c0.2-0.2,0.4-0.4,0.6-0.6c0.2-0.1,0.4-0.2,0.6-0.2c0.2,0,0.4,0.1,0.6,0.2
				c0.1,0.1,0.2,0.3,0.2,0.6C424.1,91.6,424,91.9,423.6,92.1L423.6,92.1z M423.6,90.7c-0.1-0.1-0.2-0.1-0.3-0.1
				c-0.1,0-0.2,0-0.4,0.1c-0.1,0.1-0.2,0.2-0.4,0.4c-0.1,0.2-0.2,0.3-0.3,0.6c-0.1,0.2-0.2,0.5-0.3,0.8c0.6,0,1-0.2,1.3-0.4
				c0.3-0.2,0.4-0.6,0.4-0.9C423.7,90.9,423.6,90.8,423.6,90.7L423.6,90.7z M427.3,91.2c0,0-0.1,0-0.1-0.1c-0.1-0.1-0.1-0.1-0.2-0.2
				c-0.1-0.1-0.2-0.1-0.2-0.2c-0.1-0.1-0.2-0.1-0.3-0.1c-0.1,0-0.2,0-0.3,0.1c-0.1,0.1-0.1,0.2-0.1,0.4c0,0.1,0,0.2,0.1,0.3
				c0,0.1,0.1,0.2,0.2,0.3l0.4,0.5c0.1,0.2,0.2,0.3,0.3,0.4c0.1,0.1,0.1,0.3,0.1,0.4c0,0.1,0,0.3-0.1,0.4c-0.1,0.1-0.1,0.2-0.2,0.3
				c-0.1,0.1-0.2,0.2-0.3,0.2c-0.1,0.1-0.3,0.1-0.4,0.1c-0.1,0-0.2,0-0.3,0c-0.1,0-0.2-0.1-0.3-0.1c-0.1,0-0.2-0.1-0.2-0.2
				c-0.1-0.1-0.1-0.1-0.1-0.2c0-0.2,0-0.3,0.1-0.4c0-0.1,0.1-0.1,0.1-0.1c0,0,0.1,0,0.1,0c0,0,0,0.1,0.1,0.1c0,0,0,0.1,0.1,0.1
				c0,0,0,0.1,0.1,0.1c0.1,0.2,0.2,0.3,0.3,0.3c0.1,0.1,0.2,0.1,0.3,0.1c0.1,0,0.3-0.1,0.4-0.2c0.1-0.1,0.2-0.3,0.2-0.5
				c0-0.1,0-0.2-0.1-0.3c0-0.1-0.1-0.2-0.2-0.3l-0.3-0.4c-0.1-0.2-0.2-0.3-0.3-0.4c-0.1-0.1-0.1-0.3-0.1-0.4c0-0.1,0-0.3,0.1-0.4
				c0.1-0.1,0.1-0.2,0.2-0.3c0.1-0.1,0.2-0.2,0.3-0.2c0.1-0.1,0.3-0.1,0.4-0.1c0.1,0,0.2,0,0.3,0c0.1,0,0.2,0,0.3,0.1
				c0.1,0,0.1,0.1,0.2,0.1c0,0.1,0.1,0.1,0.1,0.2C427.5,91.1,427.4,91.2,427.3,91.2L427.3,91.2z M434.4,90.6l-0.7,2.4
				c0,0.1-0.1,0.2-0.1,0.3c0,0.1,0,0.1,0,0.1c0,0.1,0,0.2,0.1,0.2c0.1,0,0.2-0.1,0.4-0.3c0.1-0.1,0.1-0.2,0.1-0.2
				c0-0.1,0.1-0.1,0.1-0.1c0,0,0,0,0,0.1c0,0.1-0.1,0.3-0.3,0.5c-0.3,0.4-0.5,0.6-0.8,0.6c-0.2,0-0.3-0.1-0.3-0.3
				c0-0.1,0-0.3,0.1-0.4c0-0.1,0.1-0.3,0.1-0.4l0.2-0.9c-0.4,0.7-0.7,1.2-1,1.5c-0.3,0.3-0.6,0.5-0.9,0.5c-0.2,0-0.4-0.1-0.5-0.2
				c-0.1-0.1-0.2-0.4-0.2-0.6c0-0.3,0.1-0.6,0.2-0.9c0.1-0.3,0.3-0.7,0.6-1c0.3-0.3,0.5-0.6,0.8-0.7c0.3-0.2,0.5-0.2,0.7-0.2
				c0.1,0,0.3,0,0.3,0.1c0.1,0.1,0.2,0.1,0.2,0.1c0,0,0,0,0.1,0c0,0,0,0,0.1-0.1c0,0,0.1-0.1,0.1-0.1c0,0,0.1,0,0.1,0
				c0.1,0,0.1,0,0.2,0c0,0,0,0,0,0.1C434.4,90.5,434.4,90.6,434.4,90.6L434.4,90.6z M433.7,90.7c-0.1-0.1-0.2-0.1-0.3-0.1
				c-0.2,0-0.4,0.1-0.6,0.3c-0.2,0.2-0.5,0.5-0.7,0.9c-0.2,0.3-0.3,0.6-0.4,0.9c-0.1,0.3-0.1,0.5-0.1,0.7c0,0.2,0,0.3,0.1,0.3
				s0.2,0.1,0.3,0.1c0.1,0,0.3-0.1,0.5-0.3c0.2-0.2,0.4-0.4,0.6-0.8c0.6-0.8,0.8-1.4,0.8-1.7C433.8,90.9,433.7,90.8,433.7,90.7
				L433.7,90.7z M437.5,88.6l-1.2,4.6c0,0.1,0,0.1,0,0.2c0,0.1,0,0.1,0,0.1c0,0.1,0,0.1,0.1,0.1c0.1,0,0.3-0.2,0.5-0.6
				c0-0.1,0.1-0.1,0.1-0.2c0,0,0-0.1,0.1-0.1c0,0,0,0,0,0.1c0,0,0,0.1-0.1,0.2c-0.1,0.1-0.1,0.2-0.3,0.4c-0.1,0.2-0.2,0.3-0.4,0.4
				c-0.1,0.1-0.2,0.1-0.3,0.1c-0.2,0-0.3-0.1-0.3-0.3c0-0.2,0.1-0.6,0.2-1l1-3.5c0-0.1,0.1-0.2,0.1-0.3c0,0,0-0.1,0-0.1
				c0,0-0.1,0-0.1,0c0,0,0,0,0,0c0,0,0,0,0,0c-0.1,0-0.1,0-0.1-0.1c0,0,0-0.1,0-0.1c0,0,0.1,0,0.1,0c0,0,0.1,0,0.2,0
				c0.1,0,0.1,0,0.2,0c0.1,0,0.3-0.1,0.3-0.1c0.1-0.1,0.1-0.1,0.2-0.1C437.6,88.5,437.6,88.5,437.5,88.6
				C437.6,88.6,437.6,88.6,437.5,88.6L437.5,88.6z M443.8,90c0,0.1-0.1,0.1-0.1,0.1c0,0-0.1,0-0.1-0.1v-0.2c0-0.2-0.1-0.4-0.2-0.5
				c-0.1-0.1-0.3-0.2-0.5-0.2c-0.1,0-0.2,0-0.4,0.1c-0.1,0-0.2,0.1-0.3,0.2c-0.1,0.1-0.1,0.2-0.2,0.3c0,0.1-0.1,0.2-0.1,0.4
				c0,0.1,0,0.3,0.1,0.4c0,0.1,0.1,0.2,0.2,0.3l0.5,0.6c0.1,0.1,0.2,0.2,0.2,0.3c0.1,0.1,0.2,0.2,0.2,0.3c0.1,0.1,0.1,0.2,0.1,0.3
				c0,0.1,0.1,0.3,0.1,0.4c0,0.2,0,0.4-0.1,0.6c-0.1,0.2-0.2,0.4-0.3,0.5c-0.1,0.1-0.3,0.3-0.5,0.3c-0.2,0.1-0.4,0.1-0.6,0.1
				c-0.1,0-0.3,0-0.4-0.1c-0.2,0-0.3-0.1-0.4-0.2c-0.1,0-0.1-0.1-0.1-0.1c0,0,0-0.1,0-0.1v-0.1l0-0.7c0-0.1,0-0.1,0-0.1
				c0,0,0-0.1,0.1-0.1c0,0,0.1,0,0.1,0c0,0,0,0.1,0,0.1c0,0,0,0.1,0,0.2c0,0.1,0,0.2,0,0.3c0,0.2,0.1,0.3,0.3,0.4
				c0.1,0.1,0.3,0.2,0.5,0.2c0.1,0,0.3,0,0.4-0.1c0.1-0.1,0.2-0.1,0.3-0.2c0.1-0.1,0.2-0.2,0.2-0.4c0.1-0.1,0.1-0.3,0.1-0.4
				c0-0.2,0-0.4-0.1-0.5c-0.1-0.1-0.2-0.3-0.3-0.5l-0.4-0.5c-0.3-0.3-0.4-0.7-0.4-1c0-0.2,0-0.4,0.1-0.6c0.1-0.2,0.2-0.3,0.3-0.5
				c0.1-0.1,0.3-0.2,0.5-0.3c0.2-0.1,0.4-0.1,0.6-0.1c0.1,0,0.2,0,0.3,0c0.1,0,0.2,0.1,0.3,0.1c0.1,0,0.1,0.1,0.2,0.1
				c0,0,0.1,0.1,0.1,0.1v0L443.8,90L443.8,90z M448.2,93.3c-0.1,0.1-0.1,0.2-0.3,0.3c-0.3,0.4-0.6,0.5-0.8,0.5
				c-0.2,0-0.3-0.1-0.3-0.4c0-0.1,0-0.1,0-0.3c0-0.1,0.1-0.3,0.1-0.5l0.2-0.8c-0.4,0.6-0.7,1.1-1,1.4c-0.3,0.3-0.6,0.5-0.9,0.5
				c-0.2,0-0.3,0-0.4-0.1c-0.1-0.1-0.1-0.2-0.1-0.3c0-0.2,0-0.4,0.1-0.7l0.6-1.8c0-0.1,0-0.1,0-0.2c0-0.1,0-0.2-0.1-0.2
				c-0.1,0-0.2,0-0.2,0.1c-0.1,0.1-0.1,0.1-0.2,0.2c-0.1,0.1-0.1,0.2-0.1,0.2c0,0.1-0.1,0.1-0.1,0.1c0,0-0.1,0-0.1-0.1
				c0-0.1,0.1-0.2,0.2-0.5c0.3-0.4,0.5-0.6,0.8-0.6c0.1,0,0.2,0,0.2,0.1c0,0.1,0.1,0.1,0.1,0.3c0,0.3-0.1,0.8-0.4,1.5l-0.3,0.9
				c-0.1,0.2-0.1,0.3-0.1,0.4c0,0.2,0.1,0.3,0.2,0.3c0.1,0,0.2,0,0.3-0.1c0.1-0.1,0.3-0.2,0.4-0.4c0.1-0.2,0.3-0.4,0.4-0.6
				c0.2-0.2,0.3-0.5,0.4-0.8c0.1-0.2,0.2-0.5,0.3-0.6c0.1-0.2,0.1-0.3,0.2-0.5c0-0.1,0.1-0.2,0.1-0.3c0-0.1,0.1-0.1,0.1-0.1h0.3
				c0,0,0,0,0.1,0c0,0,0,0,0,0c0,0,0,0,0,0.1l-0.6,1.9c-0.2,0.5-0.2,0.9-0.2,1c0,0.1,0,0.2,0.1,0.2c0.1,0,0.2,0,0.2-0.1
				c0.1-0.1,0.1-0.2,0.2-0.2c0.1-0.1,0.1-0.2,0.2-0.2c0.1-0.1,0.1-0.1,0.1-0.1c0,0,0,0,0,0c0,0,0,0,0,0.1
				C448.3,93.1,448.3,93.2,448.2,93.3L448.2,93.3z M452.3,91.2c-0.1,0.1-0.1,0.1-0.2,0.1c-0.1,0-0.1,0-0.2-0.1c0,0-0.1-0.1-0.1-0.2
				c0-0.1,0-0.1,0-0.1c0,0-0.1-0.1-0.1-0.1c-0.1,0-0.3,0.2-0.5,0.6c-0.2,0.4-0.5,1-0.8,1.9c-0.1,0.2-0.1,0.3-0.1,0.4
				c0,0.1-0.1,0.2-0.1,0.2c0,0-0.1,0.1-0.1,0.1c0,0-0.1,0-0.1,0c-0.1,0-0.2,0-0.2-0.1c0,0,0,0,0-0.1l0.6-2.2c0-0.1,0.1-0.3,0.1-0.4
				c0-0.1,0-0.2,0-0.3c0-0.1,0-0.1-0.1-0.1c-0.1,0-0.1,0-0.2,0.1c-0.1,0.1-0.1,0.2-0.2,0.2c-0.1,0.1-0.1,0.2-0.2,0.2
				c-0.1,0.1-0.1,0.1-0.1,0.1c0,0-0.1,0-0.1-0.1c0,0,0-0.1,0.1-0.2c0.1-0.1,0.1-0.2,0.3-0.4c0.3-0.3,0.5-0.5,0.7-0.5
				c0.1,0,0.1,0,0.2,0.1c0,0.1,0.1,0.2,0.1,0.3c0,0,0,0.1,0,0.3c0,0.1,0,0.3-0.1,0.5l-0.3,1.1c0.3-0.7,0.6-1.3,0.8-1.6
				c0.2-0.4,0.5-0.5,0.7-0.5c0.1,0,0.2,0,0.2,0.1c0.1,0.1,0.1,0.2,0.1,0.3C452.4,91,452.4,91.1,452.3,91.2L452.3,91.2z M453,94.4
				c-0.1,0.2-0.2,0.3-0.3,0.5c-0.1,0.1-0.2,0.3-0.3,0.3c-0.1,0.1-0.2,0.1-0.2,0.1c0,0-0.1,0-0.1-0.1c0-0.1,0-0.1,0.1-0.1
				c0.1,0,0.1-0.1,0.2-0.2c0.1-0.2,0.2-0.3,0.3-0.5c0.1-0.1,0.1-0.2,0.1-0.3c0-0.1-0.1-0.1-0.2-0.1c-0.1,0-0.2-0.1-0.2-0.3
				c0-0.1,0-0.2,0.1-0.3c0.1-0.1,0.1-0.1,0.2-0.1c0.1,0,0.2,0,0.2,0.1c0.1,0.1,0.1,0.2,0.1,0.4C453.1,94.1,453,94.2,453,94.4
				L453,94.4z M460.2,93.1l-0.2,0.7c0,0.1,0,0.1-0.1,0.1c0,0-0.1,0-0.2,0c0,0-0.2,0-0.5,0c-0.3,0-0.6,0-1.1,0c-0.2,0-0.4,0-0.6,0
				c-0.1,0-0.2,0-0.3,0c-0.1,0-0.1,0-0.1-0.1c0-0.1,0-0.1,0.1-0.1c0.1,0,0.1,0,0.2,0c0.1,0,0.2-0.1,0.2-0.1c0,0,0.1-0.1,0.1-0.2
				l0.9-3.8c0,0,0-0.1,0-0.1c0,0,0-0.1,0-0.1c0-0.1,0-0.1-0.1-0.1c0,0-0.1,0-0.1,0c0,0-0.1,0-0.1,0c0,0-0.1,0-0.1-0.1
				c0-0.1,0.1-0.1,0.2-0.1c0,0,0.1,0,0.2,0c0.1,0,0.2,0,0.4,0c0.2,0,0.4,0,0.5,0c0.1,0,0.2,0,0.2,0c0.1,0,0.1,0,0.1,0.1
				c0,0.1,0,0.1-0.1,0.1c-0.1,0-0.1,0-0.2,0c-0.1,0-0.2,0.1-0.2,0.1c0,0-0.1,0.1-0.1,0.2l-0.9,3.6c0,0.1,0,0.1,0,0.2
				c0,0.1,0,0.1,0,0.2c0,0.1,0,0.2,0.1,0.2c0.1,0,0.1,0.1,0.3,0.1c0.2,0,0.4,0,0.6-0.1c0.1,0,0.3-0.1,0.4-0.2
				c0.1-0.1,0.1-0.2,0.2-0.2c0-0.1,0.1-0.1,0.1-0.2c0-0.1,0.1-0.1,0.1-0.2c0,0,0-0.1,0.1-0.1c0,0,0,0,0,0c0,0,0,0,0,0.1
				C460.2,93,460.2,93,460.2,93.1C460.2,93.1,460.2,93.1,460.2,93.1L460.2,93.1z M463.8,92.1c-0.4,0.2-0.9,0.4-1.7,0.4
				c0,0.2,0,0.3,0,0.3c0,0.3,0.1,0.5,0.2,0.7c0.1,0.2,0.3,0.2,0.5,0.2c0.3,0,0.6-0.2,0.8-0.5c0.1-0.1,0.1-0.2,0.2-0.2
				c0-0.1,0.1-0.1,0.1-0.1c0,0,0,0,0,0.1c0,0,0,0.1-0.1,0.2c0,0.1-0.1,0.2-0.2,0.3c-0.3,0.4-0.7,0.7-1.1,0.7c-0.1,0-0.3,0-0.4-0.1
				c-0.1-0.1-0.2-0.2-0.3-0.3c-0.1-0.1-0.2-0.3-0.2-0.4c-0.1-0.2-0.1-0.4-0.1-0.6c0-0.3,0.1-0.6,0.2-0.9c0.1-0.3,0.3-0.6,0.5-0.8
				c0.2-0.2,0.4-0.4,0.6-0.6c0.2-0.1,0.4-0.2,0.6-0.2c0.2,0,0.4,0.1,0.6,0.2c0.2,0.1,0.2,0.3,0.2,0.6
				C464.3,91.6,464.2,91.9,463.8,92.1L463.8,92.1z M463.8,90.7c-0.1-0.1-0.2-0.1-0.3-0.1c-0.1,0-0.2,0-0.4,0.1
				c-0.1,0.1-0.2,0.2-0.4,0.4c-0.1,0.2-0.2,0.3-0.3,0.6c-0.1,0.2-0.2,0.5-0.3,0.8c0.6,0,1-0.2,1.3-0.4c0.3-0.2,0.4-0.6,0.4-0.9
				C463.9,90.9,463.8,90.8,463.8,90.7L463.8,90.7z M468.5,90.8c0,0-0.1,0-0.1,0h-0.5c0.1,0.1,0.2,0.3,0.2,0.4c0,0.1,0.1,0.2,0.1,0.4
				c0,0.2,0,0.4-0.1,0.5c-0.1,0.2-0.2,0.3-0.3,0.4c-0.1,0.1-0.3,0.2-0.4,0.3c-0.2,0.1-0.3,0.1-0.5,0.1c-0.1,0-0.2,0-0.3,0
				c-0.1,0-0.1-0.1-0.2-0.1c-0.1,0-0.1-0.1-0.1-0.1c0,0-0.1,0-0.1,0c0,0-0.1,0-0.1,0.1c0,0.1-0.1,0.1-0.1,0.2c0,0.1,0,0.2,0.1,0.2
				c0.1,0.1,0.2,0.1,0.3,0.2l0.6,0.3c0.3,0.1,0.5,0.3,0.7,0.4c0.1,0.2,0.2,0.4,0.2,0.6c0,0.2,0,0.3-0.1,0.5
				c-0.1,0.1-0.2,0.3-0.3,0.4c-0.1,0.1-0.3,0.2-0.5,0.2c-0.2,0.1-0.4,0.1-0.6,0.1c-0.2,0-0.4,0-0.6-0.1c-0.2-0.1-0.3-0.1-0.5-0.2
				c-0.1-0.1-0.2-0.2-0.3-0.3c-0.1-0.1-0.1-0.3-0.1-0.4c0-0.3,0.1-0.5,0.3-0.6c0.2-0.2,0.5-0.3,0.9-0.4c-0.3-0.1-0.4-0.3-0.4-0.6
				c0-0.1,0-0.2,0.1-0.3c0-0.1,0.1-0.1,0.1-0.2c0-0.1,0.1-0.1,0.1-0.1c0,0,0.1-0.1,0.1-0.1c0,0,0-0.1,0-0.1c0,0-0.1-0.1-0.1-0.2
				c0-0.1-0.1-0.1-0.1-0.2c0-0.1,0-0.2,0-0.3c0-0.2,0-0.3,0.1-0.5c0.1-0.2,0.2-0.3,0.3-0.4c0.1-0.1,0.2-0.2,0.4-0.3
				c0.2-0.1,0.3-0.1,0.5-0.1c0.1,0,0.2,0,0.2,0c0.1,0,0.1,0,0.2,0.1c0.1,0,0.1,0,0.2,0.1c0.1,0,0.1,0,0.2,0h0.6c0.1,0,0.1,0,0.1,0
				c0,0,0.1,0.1,0.1,0.1C468.5,90.7,468.5,90.8,468.5,90.8L468.5,90.8z M465.9,94c-0.1,0-0.2,0.1-0.3,0.2c-0.1,0.1-0.2,0.2-0.2,0.3
				c-0.1,0.1-0.1,0.2-0.1,0.4c0,0.3,0.1,0.5,0.3,0.7c0.2,0.2,0.5,0.3,0.9,0.3c0.3,0,0.6-0.1,0.8-0.2c0.2-0.1,0.3-0.3,0.3-0.6
				c0-0.3-0.1-0.5-0.4-0.6l-0.7-0.3c0,0-0.1,0-0.2,0C466.1,93.9,466,94,465.9,94L465.9,94z M467.4,90.7c-0.1-0.1-0.3-0.2-0.4-0.2
				c-0.1,0-0.3,0-0.4,0.1c-0.1,0.1-0.2,0.2-0.3,0.3c-0.1,0.1-0.1,0.3-0.2,0.5c0,0.2-0.1,0.4-0.1,0.6c0,0.3,0.1,0.4,0.2,0.6
				c0.1,0.1,0.3,0.2,0.4,0.2c0.1,0,0.2,0,0.4-0.1c0.1-0.1,0.2-0.2,0.3-0.3c0.1-0.1,0.2-0.3,0.2-0.5c0-0.2,0.1-0.4,0.1-0.6
				C467.6,91,467.6,90.8,467.4,90.7L467.4,90.7z M472.7,90.6l-0.7,2.4c0,0.1-0.1,0.2-0.1,0.3c0,0.1,0,0.1,0,0.1c0,0.1,0,0.2,0.1,0.2
				c0.1,0,0.2-0.1,0.4-0.3c0.1-0.1,0.1-0.2,0.1-0.2c0-0.1,0.1-0.1,0.1-0.1c0,0,0,0,0,0.1c0,0.1-0.1,0.3-0.3,0.5
				c-0.3,0.4-0.5,0.6-0.8,0.6c-0.2,0-0.3-0.1-0.3-0.3c0-0.1,0-0.3,0.1-0.4c0-0.1,0.1-0.3,0.1-0.4l0.2-0.9c-0.4,0.7-0.7,1.2-1,1.5
				c-0.3,0.3-0.6,0.5-0.9,0.5c-0.2,0-0.4-0.1-0.5-0.2c-0.1-0.1-0.2-0.4-0.2-0.6c0-0.3,0.1-0.6,0.2-0.9c0.1-0.3,0.3-0.7,0.6-1
				c0.3-0.3,0.5-0.6,0.8-0.7c0.3-0.2,0.5-0.2,0.7-0.2c0.1,0,0.3,0,0.3,0.1c0.1,0.1,0.1,0.1,0.2,0.1c0,0,0,0,0.1,0c0,0,0,0,0.1-0.1
				c0,0,0.1-0.1,0.1-0.1c0,0,0.1,0,0.1,0c0.1,0,0.1,0,0.2,0c0,0,0,0,0,0.1C472.8,90.5,472.8,90.6,472.7,90.6L472.7,90.6z M472,90.7
				c-0.1-0.1-0.2-0.1-0.3-0.1c-0.2,0-0.4,0.1-0.6,0.3c-0.2,0.2-0.5,0.5-0.7,0.9c-0.2,0.3-0.3,0.6-0.4,0.9c-0.1,0.3-0.1,0.5-0.1,0.7
				c0,0.2,0,0.3,0.1,0.3c0.1,0.1,0.2,0.1,0.3,0.1c0.1,0,0.3-0.1,0.5-0.3c0.2-0.2,0.4-0.4,0.6-0.8c0.6-0.8,0.8-1.4,0.8-1.7
				C472.1,90.9,472.1,90.8,472,90.7L472,90.7z M475.8,89.7c-0.1,0.1-0.2,0.2-0.3,0.2c-0.1,0-0.1,0-0.2-0.1c0-0.1-0.1-0.1-0.1-0.2
				c0-0.1,0-0.2,0.1-0.4c0.1-0.1,0.2-0.2,0.3-0.2c0.1,0,0.1,0,0.2,0.1c0,0.1,0.1,0.1,0.1,0.2C475.9,89.5,475.8,89.6,475.8,89.7
				L475.8,89.7z M475.5,90.7c0,0.1,0,0.1,0,0.2c0,0.1,0,0.2-0.1,0.2l-0.8,3c-0.1,0.3-0.2,0.6-0.3,0.8c-0.1,0.2-0.2,0.4-0.3,0.5
				c-0.1,0.1-0.2,0.3-0.4,0.3c-0.1,0.1-0.2,0.1-0.4,0.1c-0.2,0-0.3,0-0.4-0.1c-0.1-0.1-0.2-0.2-0.2-0.3c0-0.1,0-0.2,0.1-0.2
				c0,0,0.1-0.1,0.2-0.1c0.1,0,0.1,0,0.2,0.1c0,0.1,0.1,0.1,0.1,0.2c0,0.1,0.1,0.1,0.1,0.2c0,0.1,0.1,0.1,0.1,0.1
				c0.1,0,0.1,0,0.2-0.1c0.1-0.1,0.1-0.2,0.2-0.4c0.1-0.2,0.1-0.4,0.2-0.7c0.1-0.3,0.2-0.6,0.3-1l0.6-2.1c0-0.1,0-0.2,0.1-0.2
				c0-0.1,0-0.1,0-0.1c0-0.1,0-0.1-0.1-0.1c-0.1,0-0.1,0-0.2,0.1c-0.1,0.1-0.1,0.1-0.2,0.2c-0.1,0.1-0.1,0.1-0.2,0.2
				c0,0.1-0.1,0.1-0.1,0.1c0,0,0,0,0-0.1c0,0,0-0.1,0.1-0.1c0-0.1,0.1-0.2,0.2-0.3c0.1-0.2,0.3-0.3,0.4-0.4c0.1-0.1,0.2-0.1,0.3-0.1
				c0.1,0,0.1,0,0.2,0.1C475.4,90.5,475.5,90.6,475.5,90.7L475.5,90.7z M479.7,92.8c-0.1,0.3-0.3,0.5-0.4,0.7
				c-0.2,0.2-0.4,0.4-0.6,0.5c-0.2,0.1-0.4,0.2-0.7,0.2c-0.2,0-0.3,0-0.5-0.1c-0.1-0.1-0.3-0.2-0.4-0.3c-0.1-0.1-0.2-0.3-0.3-0.5
				c-0.1-0.2-0.1-0.4-0.1-0.6c0-0.3,0.1-0.6,0.2-0.9c0.1-0.3,0.3-0.5,0.4-0.7c0.2-0.2,0.4-0.4,0.6-0.5c0.2-0.1,0.4-0.2,0.7-0.2
				c0.2,0,0.3,0,0.5,0.1c0.2,0.1,0.3,0.2,0.4,0.3c0.1,0.1,0.2,0.3,0.3,0.5c0.1,0.2,0.1,0.4,0.1,0.6
				C479.8,92.3,479.8,92.5,479.7,92.8L479.7,92.8z M479.2,90.9c-0.1-0.2-0.3-0.3-0.5-0.3c-0.2,0-0.3,0.1-0.5,0.2
				c-0.2,0.1-0.3,0.3-0.5,0.5c-0.2,0.3-0.3,0.5-0.4,0.8c-0.1,0.3-0.1,0.6-0.1,0.8c0,0.3,0.1,0.6,0.2,0.8c0.1,0.2,0.3,0.3,0.5,0.3
				c0.2,0,0.3-0.1,0.5-0.2c0.2-0.1,0.3-0.3,0.5-0.5c0.1-0.2,0.2-0.5,0.3-0.8c0.1-0.3,0.1-0.6,0.1-0.9
				C479.4,91.3,479.3,91,479.2,90.9L479.2,90.9z M486.6,91.6c-0.1,0.3-0.2,0.6-0.4,0.9c-0.2,0.3-0.3,0.6-0.6,0.8
				c-0.2,0.2-0.5,0.5-0.7,0.6c-0.2,0.1-0.3,0.2-0.5,0.3c-0.2,0.1-0.3,0.1-0.4,0.2c-0.1,0-0.3,0.1-0.4,0.1c-0.1,0-0.2,0-0.2,0
				c-0.1,0-0.1,0-0.1-0.1c0,0,0-0.1,0.1-0.1c0.1,0,0.1,0,0.2-0.1c0.1,0,0.2-0.1,0.4-0.1c0.1,0,0.3-0.1,0.5-0.2
				c0.3-0.2,0.5-0.4,0.7-0.6c0.2-0.3,0.4-0.5,0.6-0.8c0.2-0.3,0.3-0.6,0.4-1c0.1-0.3,0.1-0.7,0.1-1c0-0.4-0.1-0.8-0.2-1
				c-0.1-0.2-0.3-0.4-0.5-0.4c-0.1,0-0.3,0-0.4,0.1c-0.1,0.1-0.2,0.2-0.3,0.4c-0.1,0.2-0.2,0.4-0.2,0.6c-0.1,0.2-0.1,0.5-0.1,0.8
				c0,0.3,0.1,0.6,0.2,0.8c0.1,0.2,0.2,0.3,0.4,0.3c0.1,0,0.1,0,0.1,0c0,0,0.1,0,0.1-0.1c0,0,0.1,0,0.1-0.1c0,0,0,0,0.1,0
				c0,0,0.1,0,0.1,0.1c0,0,0,0.1,0,0.1c0,0-0.1,0.1-0.1,0.1c0,0-0.1,0.1-0.2,0.1c-0.1,0-0.1,0-0.2,0c-0.1,0-0.2,0-0.4-0.1
				c-0.1-0.1-0.2-0.2-0.3-0.3c-0.1-0.1-0.2-0.3-0.2-0.4c-0.1-0.2-0.1-0.4-0.1-0.6c0-0.3,0-0.5,0.1-0.7c0.1-0.2,0.2-0.4,0.3-0.6
				c0.1-0.2,0.3-0.3,0.5-0.4c0.2-0.1,0.4-0.2,0.6-0.2c0.2,0,0.3,0,0.5,0.1c0.1,0.1,0.3,0.2,0.4,0.4c0.1,0.2,0.2,0.3,0.3,0.6
				c0.1,0.2,0.1,0.5,0.1,0.7C486.7,91,486.7,91.3,486.6,91.6L486.6,91.6z M490.2,91.6c-0.2,0.1-0.3,0.3-0.5,0.4
				c-0.2,0.1-0.4,0.3-0.5,0.4c-0.2,0.2-0.4,0.3-0.6,0.5c-0.2,0.2-0.4,0.4-0.5,0.6h1.4c0.1,0,0.3,0,0.3,0c0.1,0,0.2-0.1,0.2-0.2
				c0,0,0.1-0.1,0.1-0.1c0,0,0-0.1,0.1-0.1c0,0,0-0.1,0-0.1c0,0,0,0,0.1,0c0,0,0,0,0,0.1c0,0.1,0,0.1-0.1,0.3c0,0.1-0.1,0.3-0.1,0.5
				c0,0.1-0.1,0.2-0.1,0.3c0,0.1-0.1,0.1-0.1,0.1h-2.3c-0.1,0-0.2,0-0.2-0.1c0-0.1,0-0.1,0.1-0.2l1.2-1.2c0.2-0.2,0.4-0.4,0.6-0.6
				c0.2-0.2,0.4-0.4,0.5-0.6c0.2-0.2,0.3-0.4,0.4-0.6c0.1-0.2,0.1-0.4,0.1-0.7c0-0.1,0-0.3-0.1-0.4s-0.1-0.2-0.2-0.3
				c-0.1-0.1-0.1-0.1-0.2-0.2c-0.1,0-0.2-0.1-0.3-0.1c-0.1,0-0.3,0-0.4,0.1c-0.1,0.1-0.3,0.2-0.4,0.3c-0.1,0.1-0.1,0.2-0.2,0.3
				c0,0.1-0.1,0.1-0.1,0.2c0,0,0,0.1-0.1,0.1c0,0,0,0-0.1,0c0,0-0.1,0-0.1-0.1c0,0,0-0.1,0.1-0.3c0.1-0.1,0.2-0.3,0.3-0.4
				c0.3-0.3,0.6-0.5,1-0.5c0.2,0,0.3,0,0.4,0.1c0.1,0.1,0.2,0.1,0.3,0.3c0.1,0.1,0.2,0.2,0.2,0.4c0.1,0.2,0.1,0.3,0.1,0.5
				C490.9,90.7,490.7,91.2,490.2,91.6L490.2,91.6z M494.8,91.6c-0.1,0.3-0.2,0.6-0.4,0.9c-0.2,0.3-0.3,0.6-0.6,0.8
				c-0.2,0.2-0.5,0.5-0.7,0.6c-0.2,0.1-0.3,0.2-0.5,0.3c-0.2,0.1-0.3,0.1-0.4,0.2c-0.1,0-0.3,0.1-0.4,0.1c-0.1,0-0.2,0-0.2,0
				c-0.1,0-0.1,0-0.1-0.1c0,0,0-0.1,0.1-0.1c0.1,0,0.1,0,0.2-0.1c0.1,0,0.2-0.1,0.4-0.1c0.1,0,0.3-0.1,0.5-0.2
				c0.3-0.2,0.5-0.4,0.7-0.6c0.2-0.3,0.4-0.5,0.6-0.8c0.2-0.3,0.3-0.6,0.4-1c0.1-0.3,0.1-0.7,0.1-1c0-0.4-0.1-0.8-0.2-1
				c-0.1-0.2-0.3-0.4-0.5-0.4c-0.1,0-0.3,0-0.4,0.1c-0.1,0.1-0.2,0.2-0.3,0.4c-0.1,0.2-0.2,0.4-0.2,0.6c-0.1,0.2-0.1,0.5-0.1,0.8
				c0,0.3,0.1,0.6,0.2,0.8c0.1,0.2,0.2,0.3,0.4,0.3c0.1,0,0.1,0,0.1,0c0,0,0.1,0,0.1-0.1c0,0,0.1,0,0.1-0.1c0,0,0,0,0.1,0
				c0,0,0.1,0,0.1,0.1c0,0,0,0.1,0,0.1c0,0-0.1,0.1-0.1,0.1c0,0-0.1,0.1-0.2,0.1c-0.1,0-0.1,0-0.2,0c-0.1,0-0.2,0-0.4-0.1
				c-0.1-0.1-0.2-0.2-0.3-0.3c-0.1-0.1-0.2-0.3-0.2-0.4c-0.1-0.2-0.1-0.4-0.1-0.6c0-0.3,0-0.5,0.1-0.7c0.1-0.2,0.2-0.4,0.3-0.6
				c0.1-0.2,0.3-0.3,0.5-0.4c0.2-0.1,0.4-0.2,0.6-0.2c0.2,0,0.3,0,0.5,0.1c0.1,0.1,0.3,0.2,0.4,0.4c0.1,0.2,0.2,0.3,0.3,0.6
				c0.1,0.2,0.1,0.5,0.1,0.7C495,91,494.9,91.3,494.8,91.6L494.8,91.6z M499.3,90.5c-0.1,0.1-0.1,0.2-0.2,0.3s-0.2,0.2-0.4,0.3
				c-0.2,0.1-0.4,0.2-0.6,0.2c0.3,0.2,0.5,0.4,0.6,0.6c0.1,0.2,0.2,0.4,0.2,0.7c0,0.2,0,0.4-0.1,0.6c-0.1,0.2-0.2,0.4-0.3,0.5
				c-0.1,0.1-0.3,0.3-0.5,0.3c-0.2,0.1-0.4,0.1-0.6,0.1c-0.2,0-0.4,0-0.5-0.1c-0.2-0.1-0.3-0.2-0.4-0.3c-0.1-0.1-0.2-0.3-0.3-0.4
				c-0.1-0.2-0.1-0.4-0.1-0.6c0-0.3,0.1-0.6,0.3-0.8c0.2-0.2,0.6-0.4,1-0.5c-0.1-0.1-0.2-0.2-0.3-0.3c-0.1-0.1-0.2-0.2-0.2-0.3
				c-0.1-0.1-0.1-0.2-0.1-0.3c0-0.1,0-0.2,0-0.3c0-0.2,0-0.4,0.1-0.5c0.1-0.2,0.2-0.3,0.3-0.4c0.1-0.1,0.3-0.2,0.5-0.3
				c0.2-0.1,0.4-0.1,0.6-0.1c0.2,0,0.3,0,0.5,0.1c0.1,0.1,0.3,0.1,0.4,0.2c0.1,0.1,0.2,0.2,0.3,0.4c0.1,0.1,0.1,0.3,0.1,0.5
				C499.4,90.2,499.3,90.4,499.3,90.5L499.3,90.5z M496.8,92c-0.2,0.3-0.3,0.6-0.3,0.9c0,0.3,0.1,0.6,0.2,0.8
				c0.2,0.2,0.4,0.3,0.6,0.3c0.1,0,0.3,0,0.4-0.1c0.1-0.1,0.2-0.1,0.3-0.3c0.1-0.1,0.2-0.2,0.2-0.4c0.1-0.2,0.1-0.3,0.1-0.5
				c0-0.2-0.1-0.5-0.2-0.6c-0.1-0.2-0.3-0.4-0.6-0.6C497.2,91.6,497,91.8,496.8,92L496.8,92z M498.7,89.3c-0.2-0.2-0.3-0.3-0.6-0.3
				c-0.1,0-0.2,0-0.3,0.1c-0.1,0.1-0.2,0.1-0.3,0.2c-0.1,0.1-0.1,0.2-0.2,0.3c-0.1,0.1-0.1,0.3-0.1,0.4c0,0.2,0.1,0.4,0.2,0.6
				c0.1,0.2,0.3,0.3,0.5,0.5c0.7-0.2,1-0.6,1-1.2C498.9,89.7,498.8,89.5,498.7,89.3L498.7,89.3z"/>
		</defs>
		<clipPath id="SVGID_4_">
			<use xlink:href="#SVGID_3_"  style="overflow:visible;"/>
		</clipPath>
		<g style="clip-path:url(#SVGID_4_);">
			
				<image style="overflow:visible;" width="348" height="67" xlink:href="813CE84936A1FD6F.jpg"  transform="matrix(1.6074 0 0 1.6074 27.0785 12.3808)">
			</image>
		</g>
	</g>
</g>
<g>
	<g>
		<path class="st0" d="M75.3,25.1c-1,0-1.3-0.4-1.3-0.4s-0.6,0.2-0.6,0.8c0,0.6,0.2,1.6-0.2,2.4c-0.4,0.8-2.4,2.4-3.3,2.3
			c-0.1,0-0.1,0-0.2,0c0,0,0,0,0,0c0,0,0,0,0,0c-0.2,0-0.3,0-0.4,0.1v0c-0.4,0.2-0.5,0.6-0.7,0.9c-0.2,0.4-0.8-0.8-1.3-0.8
			c-0.5,0-2.1,0-2.8-0.3C64.3,30,64.1,30,63.8,30l0,0c0,0,0,0,0,0c-0.1,0-0.2,0-0.3,0c0,0,0,0,0,0c-0.1,0-0.3,0-0.4,0
			c0,0-0.1,0-0.1,0c0,0-0.1,0-0.1,0c-0.1,0-0.1,0-0.2,0c0,0,0,0,0,0c-0.1,0-0.1,0-0.2,0c0,0,0,0,0,0c-0.1,0-0.1,0-0.1,0c0,0,0,0,0,0
			c0,0-0.1,0-0.1-0.1c0,0,0,0,0,0c0,0,0,0,0-0.1c0-0.1,0.2-0.3,0.3-0.6c0,0,0,0,0,0c0.4-0.7,0.9-1.6,1-1.9c0-0.4,1.7-2.5,1.7-2.5
			s-0.4-1.9-0.8-2c-0.4-0.2-1.4-0.2-2.5-0.8c-1.1-0.6-3.1-2.2-3.5-2.5c-0.4-0.3-2.8-0.9-2.8-0.9s-0.7-1.2-1.8-1.8
			c-1.1-0.6-1.5-1.9-1.7-2.4c0,0,0,0,0,0v-0.1c-0.3-0.5-3.1-1.8-4.3-1.8c-1.2,0-2,2.7-2,2.7s-0.2-1.8-1.3-1.9
			c-0.4-0.1-0.9-0.1-1.4-0.1c-0.8,0-1.5,0.1-1.5,0.1L40.1,12c0,0,0,0.3-0.3,0.8c-0.3,0.5-0.5,0.8-1.2,1.1c-0.8,0.4-1.2,1.6-1.2,1.6
			s0.2,0.3,0.3,0.7c0,0.3-0.1,1.1-0.2,1.9c0,0,0,0.1,0,0.2c0,0,0,0-0.1-0.1c-0.1,0.5-0.2,1-0.2,1.2c-0.1,0.4-1.5,0.8-2.6,1.4l0,0
			c0,0,0,0,0,0c-0.2,0.1-0.3,0.2-0.5,0.3c0,0-0.1,0-0.1,0.1c0,0-0.1,0-0.1,0.1c-0.1,0-0.1,0.1-0.1,0.1c0,0,0,0,0,0
			c0,0-0.1,0.1-0.1,0.1c0,0,0,0,0,0c0,0,0,0.1,0,0.1c-0.1,0.8,0.7,1.5,0.7,1.5s-0.7,0.8-0.4,1.7c0.2,1,0.5,0.9,0.1,2.2
			c-0.1,0.2-0.1,0.4-0.1,0.6c0,0,0,0.1,0,0.1c0,0.1,0,0.1,0.1,0.1c0,0,0,0.1,0,0.1c0,0,0.1,0.1,0.1,0.1c0,0,0,0,0.1,0.1
			c0,0,0.1,0.1,0.1,0.1c0,0,0,0,0,0c0.1,0.1,0.2,0.1,0.2,0.2c0,0,0,0,0,0c0,0,0.1,0.1,0.1,0.1c0,0,0,0,0,0c0,0,0.1,0.1,0.1,0.2
			c0.1,0.5-0.4,0.5-0.9,0.6c-0.1,0-0.1,0-0.1,0.1c0,0,0,0,0,0c0,0,0,0-0.1,0.1c0,0,0,0,0,0c-0.2,0.2-0.3,0.8-1,1.9c0,0,0,0,0,0
			c-0.4,0.7-0.7,1.3-0.9,1.8l0,0c0,0,0,0,0,0c-0.1,0.2-0.1,0.4-0.2,0.5c0,0,0,0,0,0c0,0.2-0.1,0.3-0.1,0.5c0,0,0,0,0,0
			c0,0.1,0,0.3-0.1,0.4c0,0,0,0,0,0.1c0,0.1,0,0.3,0,0.4c0,0.8-0.7,0.8-0.7,1.5c-0.1,0.7,0.8,2.1,0.7,2.8c-0.1,0.7-0.4,0.3-0.8,0.8
			c0,0-0.1,0.1-0.1,0.2c0,0,0,0,0,0.1c0,0.1-0.1,0.1-0.1,0.2c0,0,0,0,0,0c0,0.1-0.1,0.2-0.1,0.3c0,0,0,0,0,0
			c-0.3,0.9-0.5,2.2-0.5,2.5c0,0.4,0.9,1.2,0.9,1.2s-0.3,0.2-0.3,0.7c0,0.3,0.5,0.9,0.7,1.4c0,0,0,0,0,0c0.2,0.4,0.3,0.7,0.1,1.1
			c-0.4,0.8,0.4,0.8,0.7,1.1c0.3,0.3,0.5,2.5,0,3.3c-0.5,0.8-1.3,2.3-1.1,2.6s0.6,1,0.7,1.6c0,0.3,0,0.5-0.2,0.8l0,0
			c0,0.1-0.1,0.2-0.2,0.3c0,0,0,0,0,0c-0.1,0.1-0.1,0.2-0.2,0.3c0,0,0,0,0,0c-0.1,0.2-0.2,0.4-0.3,0.5c0,0.1-0.1,0.1-0.1,0.2
			c-0.3,0.4-0.7,0.9-0.8,1.8c-0.2,1.1,0,2.5,0.3,3.1c0.3,0.6,0.9,1.5,0.7,1.9c-0.2,0.4-0.3,0.6-0.8,1.1c-0.5,0.5-0.3,1.7-0.4,1.8
			c-0.1,0.1-0.3,0.2-0.5,0.5c-0.2,0.4,0,0.5,0.3,1c0.3,0.5-0.2,0.9-0.2,1.9c0,0.4,0,0.8,0,1.3l0,0c0,0,0,0,0,0c0,0.1,0,0.1,0,0.2
			c0,0.1,0,0.2,0,0.2c0,0.1,0,0.1,0,0.2c0,0.1,0,0.2,0,0.4c0,0,0,0.1,0,0.1c0,0.1,0,0.2,0,0.3c0,0,0,0,0,0.1c0,0.1,0,0.2,0.1,0.3
			c0,0,0,0,0,0.1c0,0.1,0.1,0.2,0.1,0.3c0.2,0.3,0.3,0.7,0.3,0.9c0,0.3-0.1,0.4-0.4,0.5c-0.5,0-0.6,2.8-0.1,3c0.4,0.2,0.4,1,0.5,1.2
			c0.1,0.1,0.5,0.8,0.6,1.3c0.2,0.5-0.4,0.7-0.4,1.2c0,0.5,1.2,0.3,1.7,0.6c0.4,0.4,0,1-1,1c-1,0.1-0.9,0.5-0.9,0.5s1,0,1.2,0.6
			c0.3,0.6,0,1.1-0.2,1.7c-0.1,0.4,0,1.4,0.1,2.2c0,0.1,0,0.1,0,0.2c0,0.1,0,0.2,0,0.2c0,0.1,0,0.3,0,0.4c0,0.9-0.2,1.2-0.4,1.7
			c-0.1,0.6-0.3,0.6-0.7,1.6c-0.3,1,0.3,2.1,0,2.9c-0.3,0.9-0.5,1.1-0.9,1.8c-0.3,0.7-0.7,0.6-0.9,1.8c-0.2,1.2,0.7,3.2,1.2,3.6
			c0.5,0.4,1.1-0.6,1.4-0.4c0.3,0.2,0.5,1.7,0.3,2.5c-0.2,0.8,0.2,0.3,0.7,0.9c0.5,0.6,1.4,0.5,2,0.4c0.6-0.1,3.4,0.1,4.1,0.4
			c0.7,0.4,1.4,0.4,1.4,0.4s-1.2-1.5-1.4-2c-0.2-0.5-0.1-1.4-0.4-1.9c-0.2-0.5-0.1-1.1,0.1-1.8c0.2-0.7,1.9-1.5,2.2-1.9
			s0.3-2.3,0.6-2.8c0.3-0.5,1.1-1.9,1.8-2.2c0.7-0.4,1.5-1.8,1.5-2.1c0-0.4,0.6-1.1,0.5-1.3c-0.1-0.2-0.5-0.8-0.7-1
			c-0.3-0.2-1.7,0.2-2.1,0c-0.1,0-0.1-0.1-0.1-0.1l0,0c0,0-0.1-0.1-0.1-0.1c0,0,0,0,0,0c0-0.1-0.1-0.1-0.1-0.2c0,0,0,0,0,0
			c0-0.1-0.1-0.1-0.1-0.2c0,0,0,0,0,0c-0.1-0.2-0.2-0.5-0.3-0.7c0,0,0,0,0,0c0-0.1-0.1-0.2-0.1-0.2c0,0,0-0.1,0-0.1
			c0-0.1-0.1-0.2-0.1-0.3c-0.2-0.4-0.4-0.8-0.4-1.3h0c0-0.4,0.2-0.9,0.7-1.6c1.1-1.6,3.3-1,3.2-1.8c-0.2-0.8,0.7-1.3,0.9-1.6
			c0.2-0.3-0.1-1.8,0-2.6c0.1-0.8,2.2-1.6,2.2-1.6s-0.3-0.3-0.4-0.6c-0.1-0.3-1.2-0.4-0.9-1c0.3-0.5,1.4,0.2,1.4,0.2s0.4,0.7,1,0.5
			c0.6-0.1,0.6-1,0.6-1.5s-0.3-1.2-0.3-1.2L47,76.3c0,0,0.5,0.3,0.2,0.6c-0.3,0.3-0.9,0-1.1-0.7c-0.2-0.7-1,0-1.1-0.6
			c-0.1-0.6-0.6-3.5,0.3-3.9c0.9-0.3,2.4,1.4,3.5,1.4c0.6,0,1.1-0.3,1.6-0.5c0.3-0.2,0.6-0.4,0.7-0.5c0.4-0.4,0.5-0.8,0.2-1.3
			c-0.3-0.4,0.1-1.1,0.1-1.8c0-0.7,0.7-1.2,0.7-1.6c0-0.4-1.1-1.6-0.7-2.1c0.4-0.6,1.5,0.8,2.6,1c1.1,0.1,5.4-0.2,6.7-1
			c1.3-0.8,2.4-1.2,3-2.3c0.6-1,0.7-1.8,1.8-2.7c1.1-0.8,0.5-1.9,0-1.9c-0.6,0.1-1.3-1-1.2-1.6c0-0.6,0.7-1.7-0.2-2.5
			c-0.9-0.8-2.1-1.6-2.1-2.1c0,0,0-0.1,0-0.2c0-0.1,0-0.2,0-0.2c0,0,0-0.1,0-0.1c0-0.1,0-0.2,0-0.2c0-0.1,0-0.1,0-0.2
			c0-0.1,0-0.1,0-0.2c0-0.1,0-0.2,0-0.3c0-0.8,0.1-1.7,0.3-2.5c0.4-1.5,0.7-1.5,0.7-2.4c0-0.9,0.5-1.8,0.5-2.9c0-0.2,0-0.3,0-0.5
			l0,0c0.1-0.4,0.2-0.8,0.3-1.2c0-0.2,0.1-0.3,0.1-0.5c0,0,0-0.1,0-0.1c0-0.2,0.1-0.4,0.1-0.6c0-1.1,4.3-4.7,5.9-6.3
			c0-0.1,0.1-0.1,0.1-0.1c0,0,0.1-0.1,0.1-0.1c0.1-0.1,0.1-0.2,0.2-0.2c0.9-1.2,2.3-1.7,3.8-2.4c1.4-0.7,2.1-1.6,2.2-2.5
			C76.1,27.6,76.3,25.1,75.3,25.1z M48.9,53.8L48.9,53.8L48.9,53.8L48.9,53.8L48.9,53.8z"/>
		<path class="st0" d="M38.9,110.2v7h3.4c0,0,0.8,0.6,1.4,0.3c0.6-0.3,0.4-0.6,0.8-0.4c0.4,0.1,1,0.2,1.2-0.2c0.2-0.4,0.5-1,0.2-1
			c-0.4,0-1.2,0.7-1.5,0.3c-0.3-0.4-0.6-0.1-1.5-1c-1-0.9-1.3-0.5-1.9-1.5c-0.6-0.9-1.7-1.5-1.6-2.1C39.4,111,38.9,110.2,38.9,110.2
			z"/>
	</g>
	<path class="st0" d="M47.1,105.1c-0.4,0.8,0.4,1,0.4,1l1.4-0.5L47.1,105.1z"/>
</g>
</svg>
