<svg version="1" xmlns="http://www.w3.org/2000/svg" width="98.667" height="98.667" viewBox="0 0 74.000000 74.000000"><path d="M38.6 22.1c-.6 5.2-.5 6.3 1.1 7.4 1 .8 2.1 1.1 2.4.7.8-.9-1.2-14.2-2.1-14.2-.4 0-1.1 2.7-1.4 6.1zM28.1 23.9c1.2 1.7 2.6 2.8 3.1 2.5 1.1-.7-.8-3.1-3.5-4.5-1.7-1-1.6-.7.4 2zM47.8 27.3c-2.9 2.3-3.5 3.7-1.9 3.7.5 0 1.9-1.4 3.1-3 2.5-3.6 2.4-3.6-1.2-.7zM21 30.4l-6.5 1.2 7 1.2c6.3 1 7.1 1 8.3-.5 2.7-3.6 1.9-3.8-8.8-1.9zM34.3 34.6c-.3.8-.1 2 .5 2.6 1.5 1.5 4.3-.8 3.5-2.8-.7-1.9-3.2-1.8-4 .2zM42.2 39.1c-.7 1.1-1.2 2.3-.9 2.5.2.2 3.9-.1 8.2-.8 8.2-1.3 7.9-1.8-1.5-3.2-3.9-.6-4.7-.4-5.8 1.5zM23 43.2l-2.3 3.2 3.1-2.3c3.8-2.6 4.8-4.1 2.9-4.1-.7 0-2.4 1.4-3.7 3.2zM30 42.8c.1 1.5.7 5.4 1.4 8.7l1.2 6 .8-6.3c.4-3.5.9-6.9 1.2-7.6.3-.7-.7-1.8-2.1-2.4-2.3-1.1-2.5-1-2.5 1.6zM40.6 44.8c-.3.5.8 1.9 2.5 3.1 2.7 2 3 2.1 2 .4-1.4-2.7-3.8-4.6-4.5-3.5z"/></svg>